<svg xmlns="http://www.w3.org/2000/svg" xmlns:xlink="http://www.w3.org/1999/xlink" width="19" height="17" viewBox="0 0 19 17"><defs><path id="yq60a" d="M185.367 2851.378c0 .67-.559 1.213-1.245 1.213h-.655a.313.313 0 0 0-.317.309v2.597l-1.583-1.698v-5.573c0-1.01-.843-1.83-1.879-1.83l-7.621.015v-1.58c0-.67.558-1.214 1.244-1.214l10.81.022h.001c.687 0 1.245.544 1.245 1.213v6.526zm-4.434 3.374c0 .67-.558 1.213-1.245 1.213l-5.406.022a.32.32 0 0 0-.233.1l-2.616 2.806v-2.598a.313.313 0 0 0-.316-.308h-2.24c-.685 0-1.244-.545-1.244-1.213v-6.526c0-.67.559-1.213 1.245-1.213l2.872-.006 7.939-.016c.686 0 1.244.544 1.244 1.213zm3.19-11.73L173.31 2843c-1.035 0-1.878.821-1.878 1.83v1.582l-2.555.006c-1.036 0-1.878.82-1.878 1.83v6.526c0 1.01.842 1.83 1.878 1.83h1.922v3.087c0 .128.08.242.203.288a.325.325 0 0 0 .348-.08l3.073-3.295 5.265-.021c1.035 0 1.878-.821 1.878-1.83v-.035l1.665 1.786a.321.321 0 0 0 .349.08.309.309 0 0 0 .202-.288v-3.087h.34c1.035 0 1.877-.821 1.877-1.83v-6.527c0-1.009-.842-1.83-1.877-1.83z"/></defs><use fill="#00d8ff" xlink:href="#yq60a" transform="translate(-167 -2843)"/></svg>