<svg xmlns="http://www.w3.org/2000/svg" xmlns:xlink="http://www.w3.org/1999/xlink" width="18" height="14" viewBox="0 0 18 14"><defs><path id="lc2ma" d="M383.4 2602.087a.302.302 0 0 1-.3.304h-16.2a.302.302 0 0 1-.3-.304v-12.174c0-.168.134-.304.3-.304h16.2c.166 0 .3.136.3.304zm-.3-13.087h-16.2c-.497 0-.9.409-.9.913v12.174c0 .504.403.913.9.913h16.2c.497 0 .9-.409.9-.913v-12.174a.907.907 0 0 0-.9-.913z"/><path id="lc2mb" d="M382.72 2590.001a.278.278 0 0 0-.226.084l-7.098 7.02a.546.546 0 0 1-.792 0l-7.098-7.02a.272.272 0 0 0-.303-.063.353.353 0 0 0-.198.277.4.4 0 0 0 .105.34l7.098 7.02c.458.454 1.126.454 1.584 0l7.098-7.02a.406.406 0 0 0 .038-.51.296.296 0 0 0-.209-.128z"/><path id="lc2mc" d="M371.756 2597.007a.324.324 0 0 0-.3.091l-4.367 4.403a.281.281 0 0 0-.076.29c.032.101.12.179.231.202a.324.324 0 0 0 .3-.091l4.367-4.403a.281.281 0 0 0 .076-.29.305.305 0 0 0-.231-.202z"/><path id="lc2md" d="M378.546 2597.098a.325.325 0 0 0-.302-.09.306.306 0 0 0-.231.202.282.282 0 0 0 .076.29l4.375 4.411a.327.327 0 0 0 .437.01.282.282 0 0 0 .02-.41z"/></defs><g><g transform="translate(-366 -2589)"><g><use fill="#00d8ff" xlink:href="#lc2ma"/></g><g><use fill="#00d8ff" xlink:href="#lc2mb"/></g><g><use fill="#00d8ff" xlink:href="#lc2mc"/></g><g><use fill="#00d8ff" xlink:href="#lc2md"/></g></g></g></svg>