<svg xmlns="http://www.w3.org/2000/svg" xmlns:xlink="http://www.w3.org/1999/xlink" width="11" height="20" viewBox="0 0 11 20"><defs><path id="7tpma" d="M661.373 2605.333h-7.756c-.536 0-.97-.447-.97-1v-1h9.696v1c0 .553-.434 1-.97 1zm.97-16v13.344h-9.696v-13.344zm-8.726-2.666h7.756c.536 0 .97.447.97 1v1h-9.696v-1c0-.553.434-1 .97-1zm7.765-.667h-7.764c-.893.001-1.617.747-1.618 1.667v16.666c.001.92.725 1.666 1.618 1.667h7.764c.893-.001 1.617-.747 1.618-1.667v-16.666c-.001-.92-.725-1.666-1.618-1.667z"/><path id="7tpmb" d="M659.625 2604h-2.25c-.207 0-.375.224-.375.5s.168.5.375.5h2.25c.207 0 .375-.224.375-.5s-.168-.5-.375-.5z"/><path id="7tpmc" d="M657.333 2589h1.334c.184 0 .333-.224.333-.5s-.15-.5-.333-.5h-1.334c-.184 0-.333.224-.333.5s.15.5.333.5z"/></defs><g><g transform="translate(-652 -2586)"><g><use fill="#00d8ff" xlink:href="#7tpma"/></g><g><use fill="#00d8ff" xlink:href="#7tpmb"/></g><g><use fill="#00d8ff" xlink:href="#7tpmc"/></g></g></g></svg>