<svg xmlns="http://www.w3.org/2000/svg" xmlns:xlink="http://www.w3.org/1999/xlink" width="14" height="16" viewBox="0 0 14 16"><defs><path id="bo68a" d="M663.846 2661.883l-.01.01c-2.159 2.336-5.055.899-5.177.837l-.096-.05-.106.011c-2.163.216-3.895-.429-3.938-.444-3.795-1.132-4.833-4.672-4.853-4.74-.887-2.325-.387-4.156-.382-4.173l.04-.14-.067-.13c-1.454-2.79.509-4.908.589-4.992 2.466-2.497 5.368-.8 5.49-.727l.112.068.13-.02c4.589-.676 7.005 2.135 7.105 2.255l.026.027c2.817 2.756 1.996 6.768 1.987 6.809l-.022.105.037.1c1.167 3.086-.777 5.105-.865 5.194zm1.584-5.353c.128-.706.663-4.551-2.199-7.364-.229-.267-2.832-3.165-7.638-2.511-.64-.333-3.693-1.7-6.27.908-.024.025-2.352 2.512-.776 5.714-.113.51-.404 2.283.427 4.458.045.162 1.146 3.96 5.311 5.203.075.028 1.847.692 4.144.488a6.24 6.24 0 0 0 2.42.512c1.105 0 2.402-.339 3.52-1.546.155-.158 2.303-2.428 1.061-5.862z"/><path id="bo68b" d="M661.577 2657.237c-.011.13-.325 3.154-5.092 2.867-.032 0-3.423.028-4.013-2.322-.005-.096-.01-.526.218-.77.128-.139.31-.202.583-.196.332.009.47.106 1.296 1.197.12.206.699.986 2.606 1.082l.03.002.03-.004c.956-.109 2.548-.654 2.452-1.987 0-.064-.054-1.563-2.582-1.763-.036-.003-3.5-.296-4.268-2.353-.048-.237-.388-2.281 1.958-3.069.035-.012 3.535-1.216 5.66.764.006.005.622.565.62 1.162 0 .265-.125.505-.39.737-.001 0-.101.069-.265.05-.203-.024-.63-.193-1.215-1.056-.012-.018-1.297-1.89-3.956-.508l-.063.04c-.06.05-.585.496-.532 1.122.035.421.316.784.86 1.092.053.024 1.312.606 3.51 1 .223.07 2.748.897 2.553 2.913zm-2.369-3.614l-.03-.008c-2.093-.374-3.318-.935-3.318-.935-.183-.116-.456-.297-.474-.505-.018-.188.152-.393.24-.477 2.034-1.037 2.936.233 2.975.288.57.845 1.155 1.308 1.735 1.375.507.058.81-.207.836-.232.42-.368.632-.798.633-1.279.002-.932-.831-1.68-.86-1.704-2.438-2.273-6.233-.97-6.387-.914-3.073 1.032-2.434 3.917-2.427 3.947l.012.04c.91 2.517 4.742 2.844 4.904 2.857 1.831.144 1.909 1.02 1.912 1.069.066.922-1.553 1.195-1.78 1.229-1.599-.089-1.975-.712-1.975-.712l-.037-.06c-.836-1.106-1.162-1.49-1.875-1.508-.594-.012-.947.224-1.137.428-.478.515-.416 1.276-.408 1.361l.008.048c.705 2.947 4.581 2.922 4.714 2.912.226.014.443.02.652.02 4.847 0 5.18-3.523 5.182-3.553.21-2.155-1.933-3.354-3.095-3.687z"/></defs><g><g transform="translate(-652 -2648)"><g><use fill="#00d8ff" xlink:href="#bo68a"/></g><g><use fill="#00d8ff" xlink:href="#bo68b"/></g></g></g></svg>