<svg xmlns="http://www.w3.org/2000/svg" xmlns:xlink="http://www.w3.org/1999/xlink" width="43" height="44" viewBox="0 0 43 44"><defs><path id="tfjva" d="M714 1254.327a5.673 5.673 0 0 0 5.673 5.673h32.653a5.673 5.673 0 0 0 5.674-5.673v-32.653a5.673 5.673 0 0 0-5.673-5.674h-32.653a5.673 5.673 0 0 0-5.674 5.673v32.653z"/><path id="tfjvb" d="M732.346 1246.095h6.175a7.73 7.73 0 0 0 1.617-.165c.514-.11.968-.293 1.36-.55a2.77 2.77 0 0 0 .937-1.045c.233-.44.35-1.003.35-1.688 0-1.345-.38-2.304-1.14-2.88-.76-.574-1.765-.861-3.014-.861h-6.285zm6.585-21.715c1.251 0 2.392.11 3.422.33 1.03.22 1.913.58 2.648 1.082a5.037 5.037 0 0 1 1.711 2c.405.83.607 1.858.607 3.08 0 1.321-.3 2.422-.901 3.302-.601.88-1.49 1.602-2.668 2.164 1.62.465 2.827 1.278 3.624 2.44.797 1.161 1.196 2.56 1.196 4.2 0 1.32-.257 2.463-.773 3.43a6.691 6.691 0 0 1-2.078 2.365c-.87.611-1.864 1.064-2.98 1.357-1.116.294-2.263.44-3.44.44H726.57v-26.19zm-6.585 10.59h5.85c1.03 0 1.876-.243 2.538-.732.662-.488.993-1.281.993-2.38 0-.61-.11-1.11-.33-1.501a2.446 2.446 0 0 0-.884-.916 3.73 3.73 0 0 0-1.27-.458 8.45 8.45 0 0 0-1.49-.128h-5.407z"/></defs><g><g transform="translate(-715 -1216)"><g><use fill="#563d7c" xlink:href="#tfjva"/></g><g><use fill="#fff" xlink:href="#tfjvb"/></g></g></g></svg>