<svg xmlns="http://www.w3.org/2000/svg" xmlns:xlink="http://www.w3.org/1999/xlink" width="53" height="52" viewBox="0 0 53 52"><defs><path id="jqk9a" d="M941 1769v-52h52.34v52z"/><path id="jqk9b" d="M969.577 1753.746h-5.121v-1.227h5.12zm14.593-2.313a.172.172 0 0 0-.132-.063h-34.043a.171.171 0 0 0-.133.063.187.187 0 0 0-.04.146c.005.033.518 3.316 4.504 3.316h25.381c3.985 0 4.499-3.283 4.504-3.316a.19.19 0 0 0-.04-.146z"/><path id="jqk9c" d="M954.918 1735.284h23.304v12.78h-23.304zm-1.756 15.203h26.815c.388 0 .703-.31.703-.692v-16.242a.698.698 0 0 0-.703-.693h-26.815a.698.698 0 0 0-.702.693v16.242c0 .382.315.692.702.692z"/><clipPath id="jqk9d"><use fill="#fff" xlink:href="#jqk9a"/></clipPath></defs><g><g transform="translate(-941 -1717)"><g><g><use fill="#00d8ff" xlink:href="#jqk9b"/></g><g><use fill="#00d8ff" xlink:href="#jqk9c"/></g></g><g><use fill="#fff" fill-opacity="0" stroke="#00d8ff" stroke-miterlimit="50" stroke-width="3.87" clip-path="url(&quot;#jqk9d&quot;)" xlink:href="#jqk9a"/></g></g></g></svg>