<svg xmlns="http://www.w3.org/2000/svg" xmlns:xlink="http://www.w3.org/1999/xlink" width="29" height="66" viewBox="0 0 29 66"><defs><path id="yxxma" d="M944.418 1356.67l1.296-5.26 7.18-7.756L951 1342l-7.6 8.26-1.506 6.286a98.247 98.247 0 0 0-3.4-.058c-8.005 0-14.495.936-14.495 2.091 0 1.155 6.49 2.092 14.495 2.092 8.005 0 14.495-.937 14.495-2.092 0-.85-3.52-1.582-8.572-1.91m1.948 49.339l.618-10.565 1.705-2.989s-3.882 1.63-10.38 1.63c-6.5 0-10.322-1.6-10.322-1.6l1.911 3.26.676 10.264c0 1.1 3.535 1.992 7.896 1.992 4.36 0 7.896-.892 7.896-1.992"/><path id="yxxmb" d="M943.452 1359.441s-.243.085-.956.09c-.714.004-1.22-.008-1.422-.294a.671.671 0 0 1-.084-.332c0-.197.09-.313.204-.385l.109.264c-.047.025-.074.055-.074.086 0 .15.73.252 1.288.24.558-.01 1.233-.081 1.233-.229 0-.044-.05-.086-.14-.12l.108-.261a.46.46 0 0 1 .27.439c0 .397-.325.458-.536.502"/><path id="yxxmc" d="M946.038 1380.375c-.171-1.684 3.6-4.124 2.632-4.202-2.083.122-3.12 2.499-4.169 4.988-.384.913-1.698 4.803-2.56 4.324-.862-.479 1.117-3.678 1.672-5.578-.64.48-2.988 2.347-3.593.6-.973.844-3.05 1.302-2.816-.918-.518.938-1.68 2.247-3.073 1.703-1.83-.714 1.06-6.682 1.78-6.38.719.3-.146 1.66-.372 2.188-.498 1.161-1.073 2.622-.689 2.92.658.513 2.45-1.937 2.49-1.99.334-.454 1.288-3.416 2.057-3.076.77.34-1.918 4.252-.913 5.028.203.157 1.032-.097 1.536-.655.327-.361.214-1.161 1.302-3.816s2.058-5.961 2.804-5.71c.746.252.13 1.95-.137 2.582-1.256 2.969-3.428 7.874-2.403 7.502 1.024-.37 1.557-.393 2.56-1.594 1.003-1.2.957-3.18 1.625-3.137.67.042.557.676.395 1.16.658-.771 3.119-2.394 3.713-.787.704 1.903-3.521 4.651-2.468 4.511 1.027-.136 2.691-1.215 3.401-2.195l1.956-17.99s-1.968 1.666-14.486 1.666-14.282-1.631-14.282-1.631l1.665 16.42c.883-2.57 2.982-7.768 6.29-7.594 1.504.08 3.512 3.044 1.792 3.145-.729.042-.802-1.48-1.665-1.704-.622-.161-1.488.357-2.048.918-1.117 1.118-3.518 5.53-3.201 7.73.404 2.804 3.782-.975 4.353-2.097.402-.79.674-3.131 1.555-2.886.88.246-.077 2.662-.715 4.799-.717 2.399-1.094 4.93-1.992 4.639-.899-.291.565-3.388.512-3.931-.845.797-2.4 2.816-4.39 1.817l1.033 10.197s2.748 2.222 11.025 2.222c8.278 0 11.127-2.188 11.127-2.188l1.284-11.81c-1.05 1.047-4.374 2.905-4.587.81m6.896-36.615c.181-.215-.094-.764-.615-1.226-.522-.462-1.092-.663-1.274-.448-.181.215.094.763.616 1.225.521.462 1.091.663 1.273.449"/></defs><g><g transform="translate(-924 -1342)"><g><use fill="#d34a47" xlink:href="#yxxma"/></g><g><use fill="#fff" xlink:href="#yxxmb"/></g><g><use fill="#d34a47" xlink:href="#yxxmc"/></g></g></g></svg>