<svg width="201" height="44" viewBox="0 0 201 44" xmlns="http://www.w3.org/2000/svg"><g id="Page-1" stroke="none" stroke-width="1" fill="none" fill-rule="evenodd"><g id="Desktops_ver3_final" transform="translate(-165 -21)"><g id="Header" transform="translate(0 -122)"><g id="top-menu" transform="translate(0 140)"><g id="logoYB_2-03" transform="translate(165 3)"><path d="M44 44H0V0h44v44zM1.937 42.063h40.126V1.937H1.937v40.126z" id="Shape" fill="#E0EDF0" fill-rule="nonzero"/><g id="Group" fill="#E0EDF0" fill-rule="nonzero"><g transform="translate(24 13)"><path id="Rectangle-path" d="M.085.276h2.318v17.798H.085z"/><path d="M11.871 10.308c-.678-.69-1.667-1.133-2.996-1.41a5.673 5.673 0 0 0 1.498-.662c.424-.277.792-.58 1.074-.94.283-.36.51-.719.622-1.133.142-.415.198-.83.198-1.271 0-.719-.113-1.355-.367-1.935a3.643 3.643 0 0 0-1.16-1.465c-.508-.387-1.186-.69-2.006-.912-.82-.22-1.78-.33-2.883-.33H4.664v1.907H5.85c1.357 0 2.346.248 2.996.746.65.497.961 1.243.961 2.294 0 .442-.085.856-.254 1.243-.17.387-.396.691-.735.968-.34.276-.763.47-1.272.608a6.862 6.862 0 0 1-1.81.22H4.637V9.95h1.78c1.357 0 2.346.276 3.025.802.678.525.989 1.27.989 2.183a3.8 3.8 0 0 1-.226 1.299 2.583 2.583 0 0 1-.707 1.022 3.748 3.748 0 0 1-1.244.664c-.508.165-1.102.248-1.809.248h-1.78v1.907h1.809c1.017 0 1.922-.11 2.713-.36.792-.248 1.47-.58 2.007-1.05a4.353 4.353 0 0 0 1.244-1.602c.282-.608.424-1.3.424-2.073.028-1.105-.311-1.99-.99-2.68z" id="Shape"/></g><g transform="translate(7 13)"><path d="M7.886 8.76a3.33 3.33 0 0 0-.198-.47 11.449 11.449 0 0 0-.424-.828L3.11.552a1.133 1.133 0 0 0-.34-.385C2.657.056 2.487 0 2.261 0H.113l5.455 8.76h2.318zm2.544 0L15.913 0h-2.176c-.198 0-.396.055-.509.193-.141.111-.226.25-.31.387L8.733 7.462a7.39 7.39 0 0 0-.424.801c-.057.166-.141.332-.198.47h2.318v.028z" id="Shape"/><path id="Rectangle-path" d="M6.784 10.999h2.459v6.771H6.784z"/></g></g><g id="text-logo" transform="translate(64 1)"><path d="M6.489 12.861V18H4.743v-5.139L.018 5.103h1.53c.156 0 .279.037.369.112.09.076.168.173.234.293l2.952 5.013c.108.21.205.406.293.59.087.183.163.364.229.544.066-.18.141-.361.225-.544.084-.184.18-.38.288-.59l2.943-5.013a.981.981 0 0 1 .225-.279.54.54 0 0 1 .369-.126h1.539l-4.725 7.758zm11.367 3.753c.534 0 1.011-.09 1.431-.27.42-.18.775-.432 1.067-.756.29-.324.512-.711.666-1.161.153-.45.229-.945.229-1.485V5.103h1.737v7.839c0 .744-.118 1.434-.355 2.07a4.81 4.81 0 0 1-1.018 1.651 4.65 4.65 0 0 1-1.615 1.094c-.636.264-1.35.396-2.142.396-.792 0-1.506-.132-2.142-.396a4.697 4.697 0 0 1-1.62-1.094 4.774 4.774 0 0 1-1.021-1.651 5.882 5.882 0 0 1-.356-2.07V5.103h1.737v7.83c0 .54.076 1.035.23 1.485.153.45.374.837.666 1.161a3.04 3.04 0 0 0 1.07.76 3.57 3.57 0 0 0 1.436.275zm9.999-3.996V18h-1.737V5.103h3.645c.816 0 1.521.082 2.115.248.594.165 1.084.403 1.471.715.388.312.674.688.86 1.13.186.44.279.934.279 1.48 0 .456-.072.882-.216 1.278a3.375 3.375 0 0 1-.625 1.066 3.815 3.815 0 0 1-1 .81 4.66 4.66 0 0 1-1.336.5c.228.144.42.327.576.549L35.649 18h-1.548c-.318 0-.552-.123-.702-.369l-3.348-4.608a.992.992 0 0 0-.328-.31c-.118-.064-.299-.095-.545-.095h-1.323zm0-1.269h1.836c.504 0 .95-.061 1.337-.184.387-.124.71-.297.972-.522.26-.226.457-.494.589-.806a2.63 2.63 0 0 0 .198-1.035c0-.768-.252-1.347-.756-1.737-.504-.39-1.26-.585-2.268-.585h-1.908v4.869zM39.141 18h-1.746V5.103h1.746V18zm8.136-5.139V18h-1.746v-5.139l-4.725-7.758h1.53c.156 0 .279.037.369.112.09.076.168.173.234.293l2.952 5.013c.108.21.205.406.293.59.087.183.163.364.229.544.066-.18.141-.361.225-.544.084-.184.18-.38.288-.59l2.943-5.013a.981.981 0 0 1 .225-.279.54.54 0 0 1 .369-.126h1.539l-4.725 7.758zM58.275 18V5.103h4.113c.792 0 1.474.078 2.048.234.573.156 1.043.378 1.412.666.37.288.641.64.815 1.058.174.417.261.886.261 1.408 0 .318-.05.624-.149.918a2.727 2.727 0 0 1-.445.819 3.1 3.1 0 0 1-.751.675c-.304.198-.659.36-1.067.486.942.186 1.653.525 2.133 1.017.48.492.72 1.14.72 1.944 0 .546-.1 1.044-.301 1.494a3.2 3.2 0 0 1-.882 1.161c-.388.324-.863.574-1.427.752-.564.177-1.206.265-1.926.265h-4.554zm1.737-5.877v4.491h2.79c.498 0 .927-.057 1.287-.171.36-.114.655-.274.886-.482a1.85 1.85 0 0 0 .509-.738c.108-.285.162-.598.162-.94 0-.666-.237-1.192-.711-1.58-.474-.387-1.185-.58-2.133-.58h-2.79zm0-1.242h2.304c.492 0 .92-.054 1.282-.162.364-.108.663-.258.9-.45a1.76 1.76 0 0 0 .527-.697c.114-.274.171-.572.171-.896 0-.762-.228-1.318-.684-1.67-.456-.35-1.164-.526-2.124-.526h-2.376v4.401zm21.816.675c0 .966-.153 1.852-.459 2.66a6.09 6.09 0 0 1-1.296 2.083 5.792 5.792 0 0 1-2.011 1.355c-.784.32-1.649.481-2.597.481s-1.812-.16-2.592-.482a5.802 5.802 0 0 1-2.007-1.354 6.09 6.09 0 0 1-1.296-2.083c-.306-.808-.459-1.694-.459-2.66 0-.966.153-1.852.459-2.66a6.139 6.139 0 0 1 1.296-2.088 5.824 5.824 0 0 1 2.007-1.363c.78-.324 1.644-.486 2.592-.486.948 0 1.813.162 2.596.486a5.814 5.814 0 0 1 2.012 1.364c.558.585.99 1.28 1.296 2.087.306.808.459 1.694.459 2.66zm-1.791 0c0-.792-.108-1.503-.324-2.133a4.512 4.512 0 0 0-.918-1.598 3.984 3.984 0 0 0-1.44-1.003c-.564-.234-1.194-.351-1.89-.351-.69 0-1.317.117-1.881.351a4.026 4.026 0 0 0-1.445 1.003 4.475 4.475 0 0 0-.922 1.598c-.216.63-.324 1.341-.324 2.133s.108 1.501.324 2.129a4.48 4.48 0 0 0 .922 1.592c.4.436.881.768 1.445 1a4.92 4.92 0 0 0 1.881.346c.696 0 1.326-.115 1.89-.347a3.937 3.937 0 0 0 1.44-.998c.396-.436.702-.966.918-1.594.216-.627.324-1.336.324-2.128zm5.184-6.453c.078 0 .144.004.198.014a.507.507 0 0 1 .27.135c.042.039.087.088.135.148l7.461 9.711a29.179 29.179 0 0 1-.031-.455 6.862 6.862 0 0 1-.014-.418V5.103h1.53V18h-.873a.75.75 0 0 1-.347-.072.875.875 0 0 1-.274-.243l-7.461-9.711a11.573 11.573 0 0 1 .036.837V18h-1.53V5.103h.9zm24.021 6.453c0 .966-.153 1.845-.459 2.637a5.848 5.848 0 0 1-1.296 2.034 5.77 5.77 0 0 1-2.011 1.31c-.784.309-1.649.463-2.597.463h-4.815V5.103h4.815c.948 0 1.813.154 2.596.463a5.738 5.738 0 0 1 2.012 1.314c.558.568.99 1.247 1.296 2.039.306.792.459 1.671.459 2.637zm-1.791 0c0-.792-.108-1.5-.324-2.124a4.476 4.476 0 0 0-.918-1.584 3.915 3.915 0 0 0-1.44-.99c-.564-.228-1.194-.342-1.89-.342H99.81v10.071h3.069c.696 0 1.326-.114 1.89-.342a3.94 3.94 0 0 0 1.44-.986 4.43 4.43 0 0 0 .918-1.579c.216-.624.324-1.332.324-2.124zM122.238 18h-1.35a.58.58 0 0 1-.378-.117.72.72 0 0 1-.216-.297l-1.206-3.114h-5.787l-1.206 3.114a.632.632 0 0 1-.207.288.575.575 0 0 1-.378.126h-1.35l5.157-12.897h1.764L122.238 18zm-8.451-4.788h4.815l-2.025-5.247a5.752 5.752 0 0 1-.194-.54 27.904 27.904 0 0 1-.193-.657c-.06.234-.121.454-.184.662a5.575 5.575 0 0 1-.194.544l-2.025 5.238zm11.889-.594V18h-1.737V5.103h3.645c.816 0 1.521.082 2.115.248.594.165 1.084.403 1.471.715.388.312.674.688.86 1.13.186.44.279.934.279 1.48 0 .456-.072.882-.216 1.278a3.375 3.375 0 0 1-.625 1.066 3.815 3.815 0 0 1-1 .81 4.66 4.66 0 0 1-1.336.5c.228.144.42.327.576.549L133.47 18h-1.548c-.318 0-.552-.123-.702-.369l-3.348-4.608a.992.992 0 0 0-.329-.31c-.117-.064-.298-.095-.544-.095h-1.323zm0-1.269h1.836c.504 0 .95-.061 1.337-.184.387-.124.71-.297.972-.522.26-.226.457-.494.589-.806a2.63 2.63 0 0 0 .198-1.035c0-.768-.252-1.347-.756-1.737-.504-.39-1.26-.585-2.268-.585h-1.908v4.869zM7.927 26.387v.638H2.34v4.463h4.838v.637H2.34V37h-.772V26.387h6.36zM9.697 37v-7.462h.383c.085 0 .145.017.18.052.035.035.058.095.068.18l.052 1.567c.115-.305.246-.576.394-.813.147-.238.317-.439.51-.604.192-.165.407-.291.645-.379.237-.087.501-.131.791-.131.155 0 .307.014.457.041.15.028.283.076.398.146l-.06.495c-.025.08-.072.12-.143.12-.06 0-.15-.017-.273-.052a1.814 1.814 0 0 0-.484-.052c-.29 0-.547.044-.773.134-.225.09-.424.222-.6.394a2.506 2.506 0 0 0-.46.645 6.12 6.12 0 0 0-.364.889V37h-.72zm8.258-7.582a3.59 3.59 0 0 1 1.436.273 2.92 2.92 0 0 1 1.069.777c.29.335.511.738.664 1.21a5.15 5.15 0 0 1 .229 1.587c0 .585-.077 1.112-.23 1.582-.152.47-.373.873-.663 1.208a2.89 2.89 0 0 1-1.069.773 3.63 3.63 0 0 1-1.436.27 3.63 3.63 0 0 1-1.436-.27 2.924 2.924 0 0 1-1.073-.773 3.41 3.41 0 0 1-.667-1.208 5.113 5.113 0 0 1-.229-1.582c0-.585.076-1.114.229-1.586a3.4 3.4 0 0 1 .667-1.211 2.96 2.96 0 0 1 1.073-.777 3.59 3.59 0 0 1 1.436-.273zm0 7.117c.445 0 .834-.076 1.166-.229.333-.152.61-.371.833-.656.222-.285.388-.629.498-1.031a5.14 5.14 0 0 0 .165-1.354c0-.495-.054-.945-.165-1.35a2.931 2.931 0 0 0-.498-1.039 2.227 2.227 0 0 0-.833-.664c-.332-.155-.721-.232-1.166-.232-.445 0-.834.077-1.166.232-.333.156-.61.377-.833.664a2.98 2.98 0 0 0-.502 1.039 5.039 5.039 0 0 0-.169 1.35c0 .5.056.951.169 1.354.112.402.28.746.502 1.031.223.285.5.504.833.656.332.153.721.229 1.166.229zM23.37 37v-7.462h.397c.126 0 .198.062.218.187l.067 1.125a4.2 4.2 0 0 1 1.193-1.043c.45-.26.955-.39 1.515-.39.41 0 .771.065 1.084.195.312.13.571.318.776.563.205.245.36.54.465.885.105.345.157.735.157 1.17V37h-.72v-4.77c0-.7-.16-1.249-.48-1.646-.32-.398-.807-.596-1.462-.596-.49 0-.945.123-1.365.37-.42.248-.795.592-1.125 1.032V37h-.72zm10.29.12c-.505 0-.899-.14-1.181-.42-.283-.28-.424-.712-.424-1.297v-5.1h-1.072a.2.2 0 0 1-.136-.046.159.159 0 0 1-.052-.127v-.277l1.275-.09.18-2.67a.273.273 0 0 1 .06-.12.159.159 0 0 1 .127-.053h.338v2.85h2.355v.532h-2.355v5.063c0 .205.026.381.079.529a.987.987 0 0 0 .217.364.853.853 0 0 0 .327.21c.125.045.26.067.404.067.18 0 .335-.026.465-.079a1.928 1.928 0 0 0 .57-.345c.06-.052.108-.078.143-.078.04 0 .08.024.12.075l.195.315a2.08 2.08 0 0 1-.724.506 2.257 2.257 0 0 1-.911.191zm2.903-4.875h3.487v.608h-3.487v-.608zm8.662-2.827c.42 0 .81.072 1.17.217.36.145.672.356.938.634.265.277.473.618.626 1.024.152.405.228.87.228 1.395 0 .11-.014.184-.044.224-.03.04-.08.06-.15.06h-5.43v.143c0 .56.064 1.052.194 1.477.13.426.315.782.556 1.07.24.287.53.503.87.648.34.145.72.218 1.14.218a3.412 3.412 0 0 0 1.668-.402c.188-.102.336-.195.447-.277.11-.083.19-.124.24-.124.065 0 .114.025.15.075l.194.24c-.12.15-.278.29-.476.42a3.4 3.4 0 0 1-.66.334 4.809 4.809 0 0 1-.78.221 4.291 4.291 0 0 1-.836.082 3.54 3.54 0 0 1-1.395-.266 2.957 2.957 0 0 1-1.08-.776c-.3-.34-.531-.756-.694-1.249-.162-.492-.243-1.056-.243-1.691 0-.535.076-1.029.228-1.481.153-.453.373-.843.66-1.17.288-.328.64-.584 1.058-.769a3.474 3.474 0 0 1 1.421-.277zm.008.532c-.386 0-.73.06-1.035.18-.306.12-.57.292-.792.518a2.64 2.64 0 0 0-.54.81 3.687 3.687 0 0 0-.273 1.057h4.95c0-.4-.057-.759-.17-1.076a2.284 2.284 0 0 0-.475-.806 2.078 2.078 0 0 0-.732-.507 2.408 2.408 0 0 0-.933-.176zM50.13 37v-7.462h.398c.125 0 .197.062.217.187l.068 1.125a4.2 4.2 0 0 1 1.192-1.043c.45-.26.955-.39 1.515-.39.41 0 .771.065 1.084.195.312.13.571.318.776.563.205.245.36.54.465.885.105.345.157.735.157 1.17V37h-.72v-4.77c0-.7-.16-1.249-.48-1.646-.32-.398-.807-.596-1.462-.596-.49 0-.945.123-1.365.37-.42.248-.795.592-1.125 1.032V37h-.72zm13.665 0c-.13 0-.205-.065-.225-.195l-.075-1.178c-.33.45-.715.808-1.155 1.073-.44.265-.935.397-1.485.397-.92 0-1.635-.317-2.145-.952s-.765-1.587-.765-2.858c0-.545.071-1.053.214-1.526.142-.472.351-.882.626-1.23a2.957 2.957 0 0 1 1.016-.821c.403-.2.866-.3 1.392-.3.505 0 .942.094 1.312.281.37.188.692.461.967.822v-4.426h.713V37h-.39zm-2.738-.48c.49 0 .937-.127 1.34-.383.402-.255.76-.612 1.075-1.072V31.15c-.285-.43-.6-.734-.948-.911a2.577 2.577 0 0 0-1.189-.267c-.44 0-.825.08-1.155.24-.33.16-.606.387-.829.68-.222.292-.39.642-.502 1.05a5.05 5.05 0 0 0-.169 1.346c0 1.11.204 1.926.611 2.448.408.523.996.784 1.767.784zm18.938-4.83c0 .82-.122 1.557-.368 2.213a4.778 4.778 0 0 1-1.034 1.672c-.446.46-.98.812-1.602 1.057a5.575 5.575 0 0 1-2.058.368h-3.878V26.387h3.877c.75 0 1.437.123 2.06.368a4.479 4.479 0 0 1 1.6 1.058 4.76 4.76 0 0 1 1.035 1.672c.246.655.368 1.39.368 2.205zm-.795 0c0-.74-.102-1.4-.308-1.98a4.128 4.128 0 0 0-.87-1.47 3.717 3.717 0 0 0-1.35-.915 4.645 4.645 0 0 0-1.74-.315h-3.105v9.367h3.106a4.63 4.63 0 0 0 1.74-.315c.525-.21.974-.514 1.35-.914.375-.4.664-.89.87-1.47.205-.58.307-1.243.307-1.988zm5.835-2.273c.42 0 .81.073 1.17.218.36.145.672.356.938.634.265.277.473.618.626 1.024.152.405.228.87.228 1.395 0 .11-.014.184-.044.224-.03.04-.08.06-.15.06h-5.43v.143c0 .56.064 1.052.194 1.477.13.426.315.782.556 1.07.24.287.53.503.87.648.34.145.72.218 1.14.218a3.412 3.412 0 0 0 1.668-.402c.188-.102.336-.195.447-.277.11-.083.19-.124.24-.124.065 0 .114.025.15.075l.194.24c-.12.15-.278.29-.476.42a3.4 3.4 0 0 1-.66.334 4.809 4.809 0 0 1-.78.221 4.291 4.291 0 0 1-.836.082 3.54 3.54 0 0 1-1.395-.266 2.957 2.957 0 0 1-1.08-.776c-.3-.34-.531-.756-.694-1.249-.162-.492-.243-1.056-.243-1.691 0-.535.076-1.029.228-1.481.153-.453.373-.843.66-1.17.288-.328.64-.584 1.058-.769a3.474 3.474 0 0 1 1.421-.277zm.008.533c-.386 0-.73.06-1.036.18-.305.12-.568.292-.79.518a2.64 2.64 0 0 0-.54.81 3.687 3.687 0 0 0-.275 1.057h4.95c0-.4-.056-.759-.168-1.076a2.284 2.284 0 0 0-.477-.806 2.078 2.078 0 0 0-.73-.507 2.408 2.408 0 0 0-.934-.176zm7.74 7.05h-.63l-3.15-7.462h.562a.26.26 0 0 1 .172.056.277.277 0 0 1 .09.123l2.468 5.888c.075.215.135.43.18.645a4.48 4.48 0 0 1 .188-.645l2.475-5.887a.337.337 0 0 1 .1-.132.246.246 0 0 1 .154-.048h.54L92.782 37zm7.597-7.582c.42 0 .81.072 1.17.217.36.145.672.356.938.634.265.277.473.618.626 1.024.152.405.228.87.228 1.395 0 .11-.014.184-.044.224-.03.04-.08.06-.15.06h-5.43v.143c0 .56.064 1.052.194 1.477.13.426.315.782.555 1.07.24.287.53.503.87.648.34.145.72.218 1.14.218a3.412 3.412 0 0 0 1.67-.402c.187-.102.335-.195.445-.277.11-.083.19-.124.24-.124a.17.17 0 0 1 .15.075l.195.24c-.12.15-.278.29-.476.42a3.4 3.4 0 0 1-.66.334 4.809 4.809 0 0 1-.78.221 4.291 4.291 0 0 1-.836.082 3.54 3.54 0 0 1-1.395-.266 2.957 2.957 0 0 1-1.08-.776c-.3-.34-.531-.756-.694-1.249-.162-.492-.243-1.056-.243-1.691 0-.535.076-1.029.228-1.481.153-.453.373-.843.66-1.17.288-.328.64-.584 1.058-.769a3.474 3.474 0 0 1 1.421-.277zm.008.532c-.386 0-.73.06-1.035.18-.306.12-.57.292-.792.518a2.64 2.64 0 0 0-.54.81 3.687 3.687 0 0 0-.273 1.057h4.95c0-.4-.057-.759-.17-1.076a2.284 2.284 0 0 0-.476-.806 2.078 2.078 0 0 0-.73-.507 2.408 2.408 0 0 0-.934-.176zm5.684-3.863V37h-.72V26.087h.72zm5.483 3.33a3.59 3.59 0 0 1 1.436.274 2.92 2.92 0 0 1 1.069.777c.29.335.511.738.664 1.21a5.15 5.15 0 0 1 .228 1.587c0 .585-.076 1.112-.228 1.582-.153.47-.374.873-.664 1.208a2.89 2.89 0 0 1-1.069.773 3.63 3.63 0 0 1-1.436.27 3.63 3.63 0 0 1-1.436-.27 2.924 2.924 0 0 1-1.073-.773 3.41 3.41 0 0 1-.667-1.208 5.113 5.113 0 0 1-.229-1.582c0-.585.076-1.114.229-1.586a3.4 3.4 0 0 1 .667-1.211 2.96 2.96 0 0 1 1.073-.777 3.59 3.59 0 0 1 1.436-.273zm0 7.118c.445 0 .834-.076 1.166-.229.333-.152.61-.371.833-.656.222-.285.388-.629.498-1.031a5.14 5.14 0 0 0 .165-1.354c0-.495-.054-.945-.165-1.35a2.931 2.931 0 0 0-.498-1.039 2.227 2.227 0 0 0-.833-.664c-.332-.155-.721-.232-1.166-.232-.445 0-.834.077-1.166.232-.333.156-.61.377-.833.664a2.98 2.98 0 0 0-.502 1.039 5.039 5.039 0 0 0-.169 1.35c0 .5.056.951.169 1.354.112.402.28.746.502 1.031.223.285.5.504.833.656.332.153.721.229 1.166.229zm5.415 3.105V29.538h.398c.125 0 .197.062.217.187l.068 1.155c.33-.45.717-.807 1.162-1.072a2.861 2.861 0 0 1 1.493-.398c.915 0 1.628.317 2.14.953.513.635.77 1.587.77 2.857 0 .545-.072 1.054-.214 1.526a3.624 3.624 0 0 1-.63 1.23 2.994 2.994 0 0 1-1.02.822c-.403.2-.866.3-1.391.3-.506 0-.943-.093-1.313-.278a2.711 2.711 0 0 1-.96-.818v3.638h-.72zm3.135-9.652c-.495 0-.942.127-1.343.382-.4.255-.757.61-1.072 1.065v3.938c.285.43.6.73.945.903.345.173.742.259 1.192.259.44 0 .825-.08 1.156-.24.33-.16.606-.386.828-.679a3.05 3.05 0 0 0 .503-1.05 5.05 5.05 0 0 0 .169-1.346c0-1.11-.205-1.926-.615-2.449-.41-.522-.998-.784-1.763-.784zm8.055-.57c.42 0 .81.072 1.17.217.36.145.672.356.938.634.265.277.473.618.626 1.024.152.405.228.87.228 1.395 0 .11-.015.184-.045.224-.03.04-.08.06-.15.06h-5.43v.143c0 .56.065 1.052.195 1.477.13.426.315.782.556 1.07.24.287.53.503.87.648.34.145.72.218 1.14.218a3.412 3.412 0 0 0 1.668-.402c.188-.102.336-.195.447-.277.11-.083.19-.124.24-.124.065 0 .114.025.15.075l.195.24c-.12.15-.28.29-.477.42a3.4 3.4 0 0 1-.66.334 4.809 4.809 0 0 1-.78.221 4.291 4.291 0 0 1-.836.082 3.54 3.54 0 0 1-1.395-.266 2.957 2.957 0 0 1-1.08-.776c-.3-.34-.531-.756-.694-1.249-.162-.492-.243-1.056-.243-1.691 0-.535.076-1.029.228-1.481.153-.453.373-.843.66-1.17.288-.328.64-.584 1.058-.769a3.474 3.474 0 0 1 1.421-.277zm.007.532c-.385 0-.73.06-1.035.18-.305.12-.568.292-.79.518a2.64 2.64 0 0 0-.54.81 3.687 3.687 0 0 0-.275 1.057h4.95c0-.4-.056-.759-.168-1.076a2.284 2.284 0 0 0-.476-.806 2.078 2.078 0 0 0-.732-.507 2.408 2.408 0 0 0-.934-.176zm4.898 7.05v-7.462h.382c.085 0 .145.017.18.052.035.035.058.095.068.18l.053 1.567c.115-.305.246-.576.393-.813.148-.238.318-.439.51-.604a2.12 2.12 0 0 1 .645-.379c.238-.087.501-.131.792-.131.155 0 .307.014.457.041.15.028.282.076.398.146l-.06.495c-.026.08-.073.12-.143.12-.06 0-.151-.017-.274-.052a1.814 1.814 0 0 0-.484-.052c-.29 0-.547.044-.772.134-.225.09-.425.222-.6.394a2.506 2.506 0 0 0-.461.645 6.12 6.12 0 0 0-.364.889V37h-.72z" id="YURIY-BONDAR-Front-e" fill="#E0EDF0"/></g></g></g></g></g></g></svg>