<svg version="1.1" id="Layer_1" xmlns="http://www.w3.org/2000/svg" width="20" height="20" viewBox="0 0 512 512" fill="#00d8ff"><path d="M499.255 300.554c3.649-20.165 18.925-129.901-62.761-210.175-6.525-7.648-80.832-90.34-218.022-71.685-18.265-9.498-105.399-48.506-178.944 25.928-.691.717-67.142 71.678-22.147 163.077-3.242 14.549-11.546 65.159 12.176 127.259 1.28 4.604 32.707 113.041 151.592 148.482 2.145.823 52.709 19.758 118.286 13.955 8.721 3.872 35.858 14.605 69.063 14.605 31.548 0 68.554-9.676 100.448-44.121 4.442-4.523 65.76-69.306 30.309-167.325zm-45.199 152.781l-.274.285c-61.643 66.694-144.294 25.653-147.781 23.885l-2.734-1.403-3.049.305c-61.724 6.169-111.161-12.237-112.38-12.664C79.523 431.422 49.895 330.384 49.316 328.463c-25.318-66.38-11.048-118.645-10.906-119.145l1.148-3.998-1.921-3.694C-3.861 121.998 52.162 61.539 54.439 59.141c70.404-71.263 153.218-22.843 156.694-20.759l3.212 1.946 3.71-.549c130.98-19.316 199.941 60.931 202.807 64.341l.721.786c80.405 78.653 56.968 193.177 56.724 194.326l-.64 3.008 1.077 2.866c33.297 88.07-22.177 145.688-24.688 148.229z"/><path d="M320.098 219.662l-.887-.239c-59.722-10.672-94.688-26.691-94.688-26.691v.007c-5.204-3.298-12.997-8.473-13.535-14.403-.488-5.385 4.345-11.224 6.886-13.623 58.035-29.602 83.785 6.642 84.88 8.223 16.303 24.113 32.964 37.316 49.53 39.242 14.473 1.667 23.113-5.915 23.865-6.618 11.973-10.498 18.046-22.786 18.069-36.507.051-26.614-23.735-47.932-24.548-48.639-69.591-64.89-177.909-27.66-182.31-26.085-87.713 29.465-69.459 111.811-69.266 112.64l.346 1.154c25.968 71.831 135.34 81.171 139.975 81.537 52.262 4.126 54.478 29.119 54.569 30.522 1.88 26.304-44.314 34.119-50.829 35.075-45.615-2.531-56.338-20.307-56.358-20.307l-1.057-1.728c-23.854-31.558-33.144-42.505-53.522-43.033-16.933-.335-27.025 6.393-32.433 12.217-13.65 14.707-11.892 36.417-11.647 38.846l.234 1.372c20.114 84.095 130.756 83.383 134.527 83.099 6.464.396 12.654.579 18.63.579 138.329-.01 147.842-100.55 147.903-101.414 5.965-61.503-55.169-95.723-88.334-105.226zm67.599 103.364c-.315 3.679-9.259 90.112-145.341 81.9-.904-.01-97.694.813-114.535-66.329-.132-2.744-.285-15.032 6.22-22.035 3.659-3.943 8.873-5.742 16.638-5.56 9.473.244 13.437 3.019 37.006 34.181 3.435 5.885 19.941 28.174 74.388 30.918l.844.041.854-.102c27.29-3.1 72.742-18.671 69.998-56.764-.03-1.819-1.545-44.67-73.718-50.372-1.006-.081-99.869-8.456-121.802-67.222-1.372-6.784-11.089-65.175 55.891-87.678.996-.35 100.875-34.74 161.542 21.821.183.158 17.746 16.155 17.715 33.19-.01 7.587-3.598 14.426-11.17 21.07-.02.015-2.876 1.956-7.552 1.411-5.783-.669-17.99-5.492-34.658-30.144-.366-.539-37.037-54.01-112.94-14.534l-1.779 1.169c-1.718 1.397-16.709 14.168-15.205 32.036 1.006 12.038 9.035 22.406 24.586 31.192 1.494.701 37.423 17.329 100.133 28.589 6.384 1.973 78.465 25.624 72.885 83.222z"/></svg>