<svg fill="#00d8ff" height="18" viewBox="0 0 18 18" width="18" xmlns="http://www.w3.org/2000/svg"><path d="M494.387 291.43A243.023 243.023 0 0 0 497 256c0-64.375-25.066-124.895-70.586-170.414C380.894 40.07 320.375 15 256 15c-11.79 0-23.684.879-35.426 2.617C198.945 6.074 174.664 0 150 0 67.29 0 0 67.29 0 150c0 24.664 6.074 48.945 17.617 70.574A242.472 242.472 0 0 0 15 256c0 64.375 25.066 124.895 70.586 170.414C131.106 471.934 191.629 497 256 497c11.79 0 23.684-.879 35.43-2.617C313.055 505.926 337.336 512 362 512c82.71 0 150-67.293 150-150 0-24.66-6.074-48.941-17.613-70.57zM362 482c-21.203 0-42.04-5.605-60.258-16.207l-4.703-2.738-5.363.914A212.82 212.82 0 0 1 256 467c-116.344 0-211-94.652-211-211 0-11.879 1.02-23.879 3.031-35.672l.918-5.363-2.738-4.703C35.605 192.039 30 171.203 30 150 30 83.832 83.832 30 150 30c21.203 0 42.04 5.605 60.262 16.21l4.703 2.735 5.363-.914A212.739 212.739 0 0 1 256 45c116.348 0 211 94.656 211 211 0 11.879-1.02 23.883-3.031 35.672l-.914 5.367 2.734 4.703C476.395 319.965 482 340.801 482 362c0 66.168-53.832 120-120 120zm0 0"/><path d="M391 195.996C390.988 138.102 343.887 91 286 91h-60c-57.895 0-105 47.105-105 105 0 30.16 12.785 57.398 33.219 76.566-19.117 5.192-33.219 22.7-33.219 43.438C121.012 373.902 168.117 421 226 421h60c57.898 0 105-47.102 105-105 0-30.16-12.785-57.395-33.215-76.563 19.113-5.19 33.215-22.699 33.215-43.44zM346 211c-8.27 0-15-6.727-15-15 0-24.813-20.188-45-45-45h-60c-24.813 0-45 20.188-45 45s20.188 45 45 45h60c41.355 0 75 33.645 75 75s-33.645 75-75 75h-60c-41.344 0-74.992-33.645-75-75 0-8.27 6.73-15 15-15 8.273 0 15 6.73 15 15 0 24.813 20.188 45 45 45h60c24.813 0 45-20.188 45-45s-20.188-45-45-45h-60c-41.355 0-75-33.645-75-75s33.645-75 75-75h60c41.348 0 74.992 33.648 75 75 0 8.273-6.727 15-15 15zm-41.836 1.574A105.094 105.094 0 0 0 286 211h-60c-8.27 0-15-6.727-15-15 0-8.27 6.73-15 15-15h60c8.273 0 15 6.73 15 15a44.788 44.788 0 0 0 3.164 16.574zM207.84 299.43A105.402 105.402 0 0 0 226 301h60c8.273 0 15 6.73 15 15 0 8.273-6.727 15-15 15h-60c-8.27 0-15-6.727-15-15a44.766 44.766 0 0 0-3.16-16.57zm0 0"/></svg>