<svg xmlns="http://www.w3.org/2000/svg"><defs><symbol id="icon-display" viewBox="0 0 32 32"><path d="M0 2v20h32V2H0zm30 18H2V4h28v16zm-9 4H11l-1 4-2 2h16l-2-2z"/></symbol><symbol id="icon-mobile" viewBox="0 0 32 32"><path d="M23 0H9C7.35 0 6 1.35 6 3v26c0 1.65 1.35 3 3 3h14c1.65 0 3-1.35 3-3V3c0-1.65-1.35-3-3-3zM12 1.5h8v1h-8v-1zM16 30a2 2 0 1 1-.001-3.999A2 2 0 0 1 16 30zm8-6H8V4h16v20z"/></symbol><symbol id="icon-tablet" viewBox="-1 0 32 32"><path d="M25 0H5C3.35 0 2 1.35 2 3v26c0 1.65 1.35 3 3 3h20c1.65 0 3-1.35 3-3V3c0-1.65-1.35-3-3-3zM15 31a1 1 0 1 1 0-2 1 1 0 0 1 0 2zm9-3H6V4h18v24z"/></symbol></defs></svg>