<svg aria-hidden="true" style="position:absolute;width:0;height:0" xmlns="http://www.w3.org/2000/svg" overflow="hidden"><defs><symbol id="icon-github" viewBox="0 0 32 32"><path d="M0 0v32h32V0H0zm19.379 26.12c-.541.104-.712-.228-.712-.512v-2.927c0-.996-.349-1.644-.733-1.975 2.376-.264 4.872-1.167 4.872-5.263 0-1.165-.415-2.117-1.099-2.863.111-.269.476-1.355-.105-2.823 0 0-.895-.287-2.931 1.093A10.124 10.124 0 0 0 16 10.489c-.907.004-1.819.121-2.671.359-2.037-1.38-2.933-1.093-2.933-1.093-.579 1.469-.213 2.553-.103 2.824-.683.747-1.099 1.697-1.099 2.863 0 4.085 2.489 5.001 4.86 5.272-.305.267-.581.736-.677 1.427-.609.272-2.152.743-3.104-.888 0 0-.564-1.024-1.636-1.1 0 0-1.04-.013-.073.649 0 0 .7.328 1.185 1.56 0 0 .617 1.904 3.584 1.259v1.985c0 .281-.172.612-.704.513-4.24-1.409-7.296-5.408-7.296-10.12 0-5.892 4.776-10.667 10.667-10.667s10.667 4.775 10.667 10.667c0 4.711-3.052 8.708-7.288 10.12z"/></symbol><symbol id="icon-linkedin" viewBox="0 0 32 32"><path d="M0 0v32h32V0H0zm10.667 25.333h-4V10.666h4v14.667zm-2-16.357c-1.288 0-2.333-1.053-2.333-2.352s1.045-2.352 2.333-2.352S11 5.325 11 6.624 9.956 8.976 8.667 8.976zm18 16.357h-4v-7.472c0-4.491-5.333-4.151-5.333 0v7.472h-4V10.666h4v2.353c1.863-3.448 9.333-3.703 9.333 3.301v9.012z"/></symbol></defs></svg>