<svg xmlns="http://www.w3.org/2000/svg" xmlns:xlink="http://www.w3.org/1999/xlink" width="1" height="1" viewBox="0 0 1 1"><defs><path id="4cx6a" d="M372.535 2657.162a1.64 1.64 0 0 0-.503.976l-.1.751-.58-2.05a.39.39 0 0 1 .168-.436l5.414-3.353zm6.012-5.949l-7.403 4.577c-.419.26-.617.773-.482 1.247l.8 2.824a.545.545 0 0 0 .57.399.546.546 0 0 0 .504-.477l.208-1.548a.916.916 0 0 1 .282-.546l6.109-5.7a.489.489 0 0 0-.588-.776z"/><path id="4cx6b" d="M382.27 2648.883l-2.93 14.165a.108.108 0 0 1-.069.08.108.108 0 0 1-.105-.013l-4.002-2.919a1.015 1.015 0 0 0-1.243.035l-2.22 1.818a.107.107 0 0 1-.1.02.108.108 0 0 1-.074-.074l-1.54-4.977a.36.36 0 0 0-.218-.23l-3.98-1.492a.105.105 0 0 1-.072-.105c0-.034.012-.08.071-.104l16.334-6.33a.106.106 0 0 1 .112.019.108.108 0 0 1 .037.108zm.437-.656a.824.824 0 0 0-.833-.141l-16.344 6.33a.825.825 0 0 0-.53.779.826.826 0 0 0 .538.775l3.818 1.43 1.49 4.809a.828.828 0 0 0 1.313.397l2.22-1.817a.303.303 0 0 1 .37-.01l4.003 2.918a.823.823 0 0 0 .786.103.827.827 0 0 0 .512-.606l2.933-14.164a.833.833 0 0 0-.276-.803z"/><path id="4cx6c" d="M380.626 2653.949c-.133-.046-.264.088-.293.3l-.037.274c-.03.212.055.42.188.467a.16.16 0 0 0 .052.009c.113 0 .215-.126.24-.31l.038-.274c.029-.211-.056-.42-.188-.466z"/><path id="4cx6d" d="M380.537 2655.539a.37.37 0 0 0-.44.29l-.849 4.007a.378.378 0 0 0 .362.459c.17 0 .323-.121.36-.298l.85-4.008a.378.378 0 0 0-.283-.45z"/></defs><g><g transform="translate(-380 -2654)"><g><g><use fill="#00d8ff" xlink:href="#4cx6a"/></g><g><use fill="#00d8ff" xlink:href="#4cx6b"/></g></g><g><use fill="#00d8ff" xlink:href="#4cx6c"/></g><g><use fill="#00d8ff" xlink:href="#4cx6d"/></g></g></g></svg>