<svg xmlns="http://www.w3.org/2000/svg" xmlns:xlink="http://www.w3.org/1999/xlink" width="21" height="16" viewBox="0 0 21 16"><defs><path id="fqzoa" d="M378.3 2802.947a.349.349 0 0 1-.35.347h-18.9a.349.349 0 0 1-.35-.347v-13.904c0-.192.157-.347.35-.347h18.9c.193 0 .35.155.35.347zm-.35-14.947h-18.9c-.58 0-1.05.467-1.05 1.043v13.914c0 .576.47 1.043 1.05 1.043h18.9c.58 0 1.05-.467 1.05-1.043v-13.914c0-.576-.47-1.043-1.05-1.043z"/><path id="fqzob" d="M377.666 2789.001a.367.367 0 0 0-.266.084l-8.43 7.02a.736.736 0 0 1-.94 0l-8.43-7.02a.368.368 0 0 0-.594.214.36.36 0 0 0 .124.34l8.43 7.02a1.47 1.47 0 0 0 1.88 0l8.43-7.02a.361.361 0 0 0-.204-.638z"/><path id="fqzoc" d="M364.707 2797.008a.389.389 0 0 0-.36.11l-5.24 5.284a.338.338 0 0 0-.091.346.366.366 0 0 0 .277.244.389.389 0 0 0 .36-.11l5.24-5.284a.338.338 0 0 0 .091-.346.366.366 0 0 0-.277-.244z"/><path id="fqzod" d="M372.655 2797.118a.39.39 0 0 0-.362-.11.367.367 0 0 0-.277.244.338.338 0 0 0 .09.347l5.25 5.295a.392.392 0 0 0 .525.011c.149-.13.16-.35.024-.493z"/></defs><g><g transform="translate(-358 -2788)"><g><use fill="#00d8ff" xlink:href="#fqzoa"/></g><g><use fill="#00d8ff" xlink:href="#fqzob"/></g><g><use fill="#00d8ff" xlink:href="#fqzoc"/></g><g><use fill="#00d8ff" xlink:href="#fqzod"/></g></g></g></svg>