<svg xmlns="http://www.w3.org/2000/svg" xmlns:xlink="http://www.w3.org/1999/xlink" width="16" height="26" viewBox="0 0 16 26"><defs><path id="pwpoa" d="M540.647 428.133h-11.294c-.78 0-1.412-.582-1.412-1.3v-1.3h14.118v1.3c0 .718-.632 1.3-1.412 1.3zm1.412-20.8v17.344H527.94v-17.344zm-12.706-3.466h11.294c.78 0 1.412.582 1.412 1.3v1.3H527.94v-1.3c0-.718.632-1.3 1.412-1.3zm11.294-.867h-11.294c-1.299.001-2.351.97-2.353 2.167v21.666c.002 1.196 1.054 2.166 2.353 2.167h11.294c1.299-.001 2.351-.97 2.353-2.167v-21.666c-.002-1.196-1.054-2.166-2.353-2.167z"/><path id="pwpob" d="M538.375 427h-3.75c-.345 0-.625.224-.625.5s.28.5.625.5h3.75c.345 0 .625-.224.625-.5s-.28-.5-.625-.5z"/><path id="pwpoc" d="M534.5 406h2a.5.5 0 0 0 0-1h-2a.5.5 0 0 0 0 1z"/></defs><g><g transform="translate(-527 -403)"><g><use fill="#00d8ff" xlink:href="#pwpoa"/></g><g><use fill="#00d8ff" xlink:href="#pwpob"/></g><g><use fill="#00d8ff" xlink:href="#pwpoc"/></g></g></g></svg>