<svg xmlns="http://www.w3.org/2000/svg" xmlns:xlink="http://www.w3.org/1999/xlink" width="15" height="19" viewBox="0 0 15 19"><defs><path id="gifwa" d="M177.806 2791.21c0 2.487-1.512 4.588-3.301 4.588-1.79 0-3.301-2.101-3.301-4.587 0-2.26 1.234-3.61 3.3-3.61 2.068 0 3.302 1.35 3.302 3.61zm.596 0c0-3.104-2.016-4.21-3.902-4.21-1.886 0-3.902 1.106-3.902 4.21 0 2.813 1.787 5.19 3.902 5.19s3.901-2.377 3.902-5.19zm.17 6.937c1.217.44 2.114 1.075 2.67 1.895.093.134.143.291.143.455v3.3c0 .44-.361.798-.805.798h-12.17a.802.802 0 0 1-.804-.799v-3.293a.794.794 0 0 1 .134-.45c.552-.822 1.453-1.464 2.678-1.906 1.157-.418 2.605-.649 4.077-.649 1.471 0 2.92.23 4.077.649zm3.428 5.65v-3.3c0-.288-.087-.564-.25-.795-.626-.923-1.623-1.636-2.963-2.12-1.223-.442-2.746-.685-4.287-.685-1.542 0-3.065.243-4.287.685-1.35.487-2.351 1.206-2.977 2.139a1.386 1.386 0 0 0-.236.784v3.291c0 .773.633 1.4 1.41 1.4h12.18c.778 0 1.41-.627 1.41-1.4z"/></defs><g><g transform="translate(-167 -2787)"><g><use fill="#00d8ff" xlink:href="#gifwa"/></g></g></g></svg>