<svg xmlns="http://www.w3.org/2000/svg" xmlns:xlink="http://www.w3.org/1999/xlink" width="39" height="46" viewBox="0 0 39 46"><defs><path id="5nj6a" d="M218.343 1262.527L202.5 1267l-15.844-4.473L183 1221h39z"/><path id="5nj6b" d="M203 1224v37.99l.036.01 12.97-3.52L219 1224z"/><path id="5nj6c" d="M204.07 1234.249l-12.07 4.9.4 4.851 11.67-4.864 12.415-5.173L217 1229z"/><path id="5nj6d" d="M192 1239.025l.398 4.975 11.602-4.988V1234l-12 5.025z"/><path id="5nj6f" d="M215 1229l-12 5.178V1239l11.522-5.104z"/><path id="5nj6h" d="M192 1239l.383 4.746 17.14.054-.383 6.327-5.64 1.582-5.422-1.364-.328-3.927h-5.038l.657 7.582 10.186 3 10.13-2.946L215 1239h-23z"/><path id="5nj6j" d="M204 1251.694l-.057.015-5.63-1.363-.341-3.928h-5.233l.683 7.582 10.578 3zm0-12.694h-12l.398 4.746 11.602.035z"/><path id="5nj6k" d="M189 1229h26l-.513 5h-24.86l-.627-5z"/><path id="5nj6m" d="M201 1229h-12l.574 5H201v-5z"/><linearGradient id="5nj6e" x1="198" x2="198" y1="1244" y2="1234" gradientUnits="userSpaceOnUse"><stop offset=".39" stop-color="#d1d3d4" stop-opacity="0"/><stop offset="1" stop-color="#d1d3d4"/></linearGradient><linearGradient id="5nj6g" x1="209" x2="209" y1="1239" y2="1229" gradientUnits="userSpaceOnUse"><stop offset=".39" stop-color="#d1d3d4" stop-opacity="0"/><stop offset="1" stop-color="#d1d3d4"/></linearGradient><linearGradient id="5nj6i" x1="192" x2="215" y1="1248" y2="1248" gradientUnits="userSpaceOnUse"><stop offset="0" stop-color="#e8e7e5"/><stop offset="1" stop-color="#fff"/></linearGradient><linearGradient id="5nj6l" x1="189" x2="215" y1="1231.5" y2="1231.5" gradientUnits="userSpaceOnUse"><stop offset="0" stop-color="#e8e7e5"/><stop offset="1" stop-color="#fff"/></linearGradient></defs><g><g transform="translate(-183 -1221)"><g/><g><use fill="#2062af" xlink:href="#5nj6a"/></g><g><use fill="#3c9cd7" xlink:href="#5nj6b"/></g><g><use fill="#fff" xlink:href="#5nj6c"/></g><g><use fill="url(#5nj6e)" xlink:href="#5nj6d"/></g><g><use fill="url(#5nj6g)" xlink:href="#5nj6f"/></g><g><use fill="url(#5nj6i)" xlink:href="#5nj6h"/></g><g opacity=".05"><use xlink:href="#5nj6j"/></g><g><use fill="url(#5nj6l)" xlink:href="#5nj6k"/></g><g opacity=".05"><use xlink:href="#5nj6m"/></g></g></g></svg>