<svg xmlns="http://www.w3.org/2000/svg" xmlns:xlink="http://www.w3.org/1999/xlink" width="45" height="45" viewBox="0 0 45 45"><defs><path id="umkfa" d="M274 1216h45v45h-45z"/><path id="umkfb" d="M300.663 1253.278l3.482-1.967c.917 1.46 2.109 2.533 4.216 2.533 1.772 0 2.902-.864 2.902-2.056 0-1.43-1.16-1.937-3.116-2.77l-1.069-.448c-3.085-1.281-5.132-2.89-5.132-6.287 0-3.13 2.444-5.513 6.263-5.513 2.719 0 4.674.924 6.079 3.337l-3.33 2.086c-.734-1.28-1.528-1.787-2.75-1.787-1.252 0-2.046.774-2.046 1.787 0 1.252.794 1.759 2.627 2.533l1.069.447c3.635 1.52 5.682 3.07 5.682 6.556 0 3.754-3.024 5.81-7.087 5.81-3.972 0-6.538-1.847-7.79-4.26m-15.123.446l3.483-2.056c.672 1.162 1.283 2.145 2.749 2.145 1.405 0 2.291-.536 2.291-2.622v-14.183h4.277v14.242c0 4.321-2.596 6.288-6.385 6.288-3.421 0-5.407-1.729-6.415-3.814"/></defs><g><g transform="translate(-274 -1216)"><g><use fill="#f7df1e" xlink:href="#umkfa"/></g><g><use xlink:href="#umkfb"/></g></g></g></svg>