<svg xmlns="http://www.w3.org/2000/svg" xmlns:xlink="http://www.w3.org/1999/xlink" width="47" height="52" viewBox="0 0 47 52"><defs><path id="dw6ra" d="M1183.361 1382.241c-.059.035-2.16-.316-4.805-.49a53.293 53.293 0 0 0-6.694 0c-1.652.104-3.825-.714-4.084.268-.968 3.67-3.07 6.86-5.726 9.337-2.007 1.87-4.297 3.284-6.776 4.16-2.952-1.495-4.345-4.838-3.093-7.76.991-2.325 2.16-4.872.011-5.457-1.558-.42-2.42 1.052-3.01 2.63-1.145 3.027-3.33 6.159-3.955 9.875-.661 3.915 0 8.075 3.424 10.436 7.98 5.469 16.634-3.39 25.76-5.621 3.305-.807 6.941-.678 9.857-2.35 2.184-1.25 3.636-3.33 4.038-5.667.66-3.763-1.31-7.491-4.947-9.361z"/><path id="dw6rb" d="M1167.778 1382.07c-.968 3.678-3.07 6.876-5.726 9.36-2.007 1.874-4.297 3.291-6.776 4.17-2.952-1.5-4.345-4.85-3.093-7.778.991-2.332 2.16-4.885.011-5.47-1.558-.423-2.42 1.053-3.01 2.635-1.145 3.034-3.33 6.173-3.955 9.898-.661 3.924 0 8.094 3.424 10.46 7.98 5.483 16.634-3.396 25.76-5.634 3.305-.808 6.941-.68 9.857-2.354 2.184-1.254 3.636-3.339 4.038-5.682.66-3.76-1.31-7.508-4.947-9.37"/><path id="dw6rc" d="M1175.123 1367.497l6.398 12.96 7.67-22.457h-28.161l7.66 22.41z"/><path id="dw6rd" d="M1162.55 1382.23c0-2.64 2.158-4.78 4.82-4.78 2.662 0 4.82 2.14 4.82 4.78s-2.158 4.78-4.82 4.78c-2.662 0-4.82-2.14-4.82-4.78z"/><path id="dw6re" d="M1162.56 1382.185c0-2.632 2.158-4.765 4.82-4.765 2.662 0 4.82 2.133 4.82 4.765 0 2.632-2.158 4.765-4.82 4.765-2.662 0-4.82-2.133-4.82-4.765z"/><path id="dw6rf" d="M1178.28 1382.185c0-2.632 2.158-4.765 4.82-4.765 2.662 0 4.82 2.133 4.82 4.765 0 2.632-2.158 4.765-4.82 4.765-2.662 0-4.82-2.133-4.82-4.765z"/><path id="dw6rg" d="M1146.73 1382.23c0-2.64 2.158-4.78 4.82-4.78 2.662 0 4.82 2.14 4.82 4.78s-2.158 4.78-4.82 4.78c-2.662 0-4.82-2.14-4.82-4.78z"/></defs><g><g transform="translate(-1144 -1357)"><g><use fill="#99425b" xlink:href="#dw6ra"/><use fill="#fff" fill-opacity="0" stroke="#fff" stroke-miterlimit="50" stroke-width="2.2" xlink:href="#dw6ra"/></g><g><use fill="#fff" fill-opacity="0" stroke="#fff" stroke-miterlimit="50" stroke-width="2.2" xlink:href="#dw6rb"/></g><g><use fill="#99425b" xlink:href="#dw6rc"/></g><g><use fill="#fff" fill-opacity="0" stroke="#fff" stroke-miterlimit="50" stroke-width="2.2" xlink:href="#dw6rc"/></g><g><use fill="#99425b" xlink:href="#dw6rd"/></g><g><g><use fill="#fff" fill-opacity="0" stroke="#fff" stroke-miterlimit="50" stroke-width="2.2" xlink:href="#dw6re"/></g><g><use fill="#99425b" xlink:href="#dw6rf"/><use fill="#fff" fill-opacity="0" stroke="#fff" stroke-miterlimit="50" stroke-width="2.2" xlink:href="#dw6rf"/></g><g><use fill="#fff" fill-opacity="0" stroke="#fff" stroke-miterlimit="50" stroke-width="2.2" xlink:href="#dw6rf"/></g></g><g><use fill="#99425b" xlink:href="#dw6rg"/></g><g><use fill="#fff" fill-opacity="0" stroke="#fff" stroke-miterlimit="50" stroke-width="2.2" xlink:href="#dw6rg"/></g></g></g></svg>