<?xml version="1.0" encoding="UTF-8"?>
<svg width="201px" height="44px" viewBox="0 0 201 44" version="1.1" xmlns="http://www.w3.org/2000/svg" xmlns:xlink="http://www.w3.org/1999/xlink">
    <!-- Generator: Sketch 49 (51002) - http://www.bohemiancoding.com/sketch -->
    <title>logoYB_2-03</title>
    <desc>Created with Sketch.</desc>
    <defs></defs>
    <g id="Page-1" stroke="none" stroke-width="1" fill="none" fill-rule="evenodd">
        <g id="Desktops_ver3_final" transform="translate(-165.000000, -21.000000)">
            <g id="Header" transform="translate(0.000000, -122.000000)">
                <g id="top-menu" transform="translate(0.000000, 140.000000)">
                    <g id="logoYB_2-03" transform="translate(165.000000, 3.000000)">
                        <path d="M44,44 L0,44 L0,0 L44,0 L44,44 Z M1.93710692,42.0628931 L42.0628931,42.0628931 L42.0628931,1.93710692 L1.93710692,1.93710692 L1.93710692,42.0628931 Z" id="Shape" fill="#E0EDF0" fill-rule="nonzero"></path>
                        <g id="Group" transform="translate(7.000000, 13.000000)" fill="#E0EDF0" fill-rule="nonzero">
                            <g transform="translate(17.000000, 0.000000)">
                                <rect id="Rectangle-path" x="0.0847959881" y="0.276363636" width="2.31775701" height="17.7978182"></rect>
                                <path d="M11.8714383,10.3083636 C11.1930704,9.61745455 10.2037839,9.17527273 8.87531343,8.89890909 C9.44062001,8.73309091 9.94939594,8.512 10.3733759,8.23563636 C10.7973558,7.95927273 11.1648051,7.65527273 11.4474584,7.296 C11.7301117,6.93672727 11.9562343,6.57745455 12.0692956,6.16290909 C12.2106223,5.74836364 12.267153,5.33381818 12.267153,4.89163636 C12.267153,4.17309091 12.1540916,3.53745455 11.8997037,2.95709091 C11.6453157,2.37672727 11.2778664,1.90690909 10.7408252,1.49236364 C10.2320492,1.10545455 9.55368133,0.801454545 8.73398678,0.580363636 C7.91429223,0.359272727 6.95327103,0.248727273 5.85092318,0.248727273 L4.66377935,0.248727273 L4.66377935,2.15563636 L5.85092318,2.15563636 C7.20765899,2.15563636 8.19694552,2.40436364 8.8470481,2.90181818 C9.49715067,3.39927273 9.8080693,4.14545455 9.8080693,5.19563636 C9.8080693,5.63781818 9.72327331,6.05236364 9.55368133,6.43927273 C9.38408935,6.82618182 9.15796672,7.13018182 8.81878277,7.40654545 C8.47959881,7.68290909 8.05561887,7.87636364 7.54684295,8.01454545 C7.03806702,8.15272727 6.4444951,8.23563636 5.73786186,8.23563636 L4.63551402,8.23563636 L4.63551402,9.94909091 L6.41622977,9.94909091 C7.77296558,9.94909091 8.76225211,10.2254545 9.44062001,10.7505455 C10.1189879,11.2756364 10.4299065,12.0218182 10.4299065,12.9338182 C10.4299065,13.4036364 10.3451106,13.8458182 10.2037839,14.2327273 C10.0624573,14.6196364 9.8080693,14.9789091 9.49715067,15.2552727 C9.15796672,15.5316364 8.76225211,15.7527273 8.25347618,15.9185455 C7.74470025,16.0843636 7.15112833,16.1672727 6.4444951,16.1672727 L4.66377935,16.1672727 L4.66377935,18.0741818 L6.47276043,18.0741818 C7.49031229,18.0741818 8.39480283,17.9636364 9.18623205,17.7149091 C9.97766127,17.4661818 10.6560292,17.1345455 11.1930704,16.6647273 C11.7301117,16.2225455 12.1540916,15.6974545 12.4367449,15.0618182 C12.7193982,14.4538182 12.8607249,13.7629091 12.8607249,12.9890909 C12.8889902,11.8836364 12.5498062,10.9992727 11.8714383,10.3083636 Z" id="Shape"></path>
                            </g>
                            <g>
                                <path d="M7.8860269,8.76072727 C7.82949624,8.59490909 7.77296558,8.45672727 7.68816959,8.29090909 C7.57510827,8.04218182 7.43378163,7.76581818 7.26418965,7.46181818 L3.10918623,0.552727273 C3.02439024,0.386909091 2.91132893,0.276363636 2.77000228,0.165818182 C2.65694096,0.0552727273 2.48734899,0 2.26122635,0 L0.113061318,0 L5.56826989,8.76072727 L7.8860269,8.76072727 Z" id="Shape"></path>
                                <path d="M10.4299065,8.76072727 L15.9133804,0 L13.7369501,0 C13.5390928,0 13.3412355,0.0552727273 13.2281742,0.193454545 C13.0868475,0.304 13.0020515,0.442181818 12.9172555,0.580363636 L8.73398678,7.46181818 C8.5643948,7.73818182 8.42306816,8.01454545 8.31000684,8.26327273 C8.25347618,8.42909091 8.16868019,8.59490909 8.11214953,8.73309091 L10.4299065,8.73309091 L10.4299065,8.76072727 Z" id="Shape"></path>
                                <rect id="Rectangle-path" x="6.78367905" y="10.9992727" width="2.45908366" height="6.77090909"></rect>
                            </g>
                        </g>
                        <g id="text-logo" transform="translate(64.000000, 1.000000)">
                            <path d="M6.489,12.861 L6.489,18 L4.743,18 L4.743,12.861 L0.018,5.103 L1.548,5.103 C1.70400078,5.103 1.82699955,5.14049962 1.917,5.2155 C2.00700045,5.29050038 2.08499967,5.3879994 2.151,5.508 L5.103,10.521 C5.21100054,10.7310011 5.30849957,10.9274991 5.3955,11.1105 C5.48250044,11.2935009 5.55899967,11.4749991 5.625,11.655 C5.69100033,11.4749991 5.76599958,11.2935009 5.85,11.1105 C5.93400042,10.9274991 6.02999946,10.7310011 6.138,10.521 L9.081,5.508 C9.13500027,5.40599949 9.20999952,5.31300042 9.306,5.229 C9.40200048,5.14499958 9.52499925,5.103 9.675,5.103 L11.214,5.103 L6.489,12.861 Z M17.856,16.614 C18.3900027,16.614 18.8669979,16.5240009 19.287,16.344 C19.7070021,16.1639991 20.0624985,15.9120016 20.3535,15.588 C20.6445015,15.2639984 20.8664992,14.8770023 21.0195,14.427 C21.1725008,13.9769978 21.249,13.4820027 21.249,12.942 L21.249,5.103 L22.986,5.103 L22.986,12.942 C22.986,13.6860037 22.8675012,14.3759968 22.6305,15.012 C22.3934988,15.6480032 22.0545022,16.1984977 21.6135,16.6635 C21.1724978,17.1285023 20.6340032,17.4929987 19.998,17.757 C19.3619968,18.0210013 18.648004,18.153 17.856,18.153 C17.063996,18.153 16.3500032,18.0210013 15.714,17.757 C15.0779968,17.4929987 14.5380022,17.1285023 14.094,16.6635 C13.6499978,16.1984977 13.3095012,15.6480032 13.0725,15.012 C12.8354988,14.3759968 12.717,13.6860037 12.717,12.942 L12.717,5.103 L14.454,5.103 L14.454,12.933 C14.454,13.4730027 14.5304992,13.9679978 14.6835,14.418 C14.8365008,14.8680022 15.0584985,15.2549984 15.3495,15.579 C15.6405015,15.9030016 15.9974979,16.1564991 16.4205,16.3395 C16.8435021,16.5225009 17.3219973,16.614 17.856,16.614 Z M27.855,12.618 L27.855,18 L26.118,18 L26.118,5.103 L29.763,5.103 C30.5790041,5.103 31.283997,5.18549917 31.878,5.3505 C32.472003,5.51550082 32.9624981,5.75399844 33.3495,6.066 C33.7365019,6.37800156 34.0229991,6.75449779 34.209,7.1955 C34.3950009,7.6365022 34.488,8.12999727 34.488,8.676 C34.488,9.13200228 34.4160007,9.55799802 34.272,9.954 C34.1279993,10.350002 33.9195014,10.7054984 33.6465,11.0205 C33.3734986,11.3355016 33.040502,11.6054989 32.6475,11.8305 C32.254498,12.0555011 31.8090025,12.2219995 31.311,12.33 C31.5390011,12.4740007 31.7309992,12.6569989 31.887,12.879 L35.649,18 L34.101,18 C33.7829984,18 33.5490008,17.8770012 33.399,17.631 L30.051,13.023 C29.9489995,12.8789993 29.8395006,12.7755003 29.7225,12.7125 C29.6054994,12.6494997 29.4240012,12.618 29.178,12.618 L27.855,12.618 Z M27.855,11.349 L29.691,11.349 C30.1950025,11.349 30.6404981,11.2875006 31.0275,11.1645 C31.4145019,11.0414994 31.7384987,10.8675011 31.9995,10.6425 C32.2605013,10.4174989 32.4569993,10.1490016 32.589,9.837 C32.7210007,9.52499844 32.787,9.18000189 32.787,8.802 C32.787,8.03399616 32.5350025,7.45500195 32.031,7.065 C31.5269975,6.67499805 30.771005,6.48 29.763,6.48 L27.855,6.48 L27.855,11.349 Z M39.141,18 L37.395,18 L37.395,5.103 L39.141,5.103 L39.141,18 Z M47.277,12.861 L47.277,18 L45.531,18 L45.531,12.861 L40.806,5.103 L42.336,5.103 C42.4920008,5.103 42.6149996,5.14049962 42.705,5.2155 C42.7950005,5.29050038 42.8729997,5.3879994 42.939,5.508 L45.891,10.521 C45.9990005,10.7310011 46.0964996,10.9274991 46.1835,11.1105 C46.2705004,11.2935009 46.3469997,11.4749991 46.413,11.655 C46.4790003,11.4749991 46.5539996,11.2935009 46.638,11.1105 C46.7220004,10.9274991 46.8179995,10.7310011 46.926,10.521 L49.869,5.508 C49.9230003,5.40599949 49.9979995,5.31300042 50.094,5.229 C50.1900005,5.14499958 50.3129993,5.103 50.463,5.103 L52.002,5.103 L47.277,12.861 Z M58.275,18 L58.275,5.103 L62.388,5.103 C63.180004,5.103 63.8624971,5.18099922 64.4355,5.337 C65.0085029,5.49300078 65.4794982,5.71499856 65.8485,6.003 C66.2175018,6.29100144 66.4889991,6.64349792 66.663,7.0605 C66.8370009,7.47750208 66.924,7.94699739 66.924,8.469 C66.924,8.78700159 66.8745005,9.09299853 66.7755,9.387 C66.6764995,9.68100147 66.528001,9.95399874 66.33,10.206 C66.131999,10.4580013 65.8815015,10.682999 65.5785,10.881 C65.2754985,11.079001 64.920002,11.2409994 64.512,11.367 C65.4540047,11.5530009 66.1649976,11.8919975 66.645,12.384 C67.1250024,12.8760025 67.365,13.523996 67.365,14.328 C67.365,14.8740027 67.264501,15.3719977 67.0635,15.822 C66.862499,16.2720022 66.5685019,16.6589984 66.1815,16.983 C65.7944981,17.3070016 65.3190028,17.5574991 64.755,17.7345 C64.1909972,17.9115009 63.5490036,18 62.829,18 L58.275,18 Z M60.012,12.123 L60.012,16.614 L62.802,16.614 C63.3000025,16.614 63.7289982,16.5570006 64.089,16.443 C64.4490018,16.3289994 64.7444988,16.168501 64.9755,15.9615 C65.2065012,15.754499 65.3759995,15.5085014 65.484,15.2235 C65.5920005,14.9384986 65.646,14.6250017 65.646,14.283 C65.646,13.6169967 65.4090024,13.0905019 64.935,12.7035 C64.4609976,12.3164981 63.7500047,12.123 62.802,12.123 L60.012,12.123 Z M60.012,10.881 L62.316,10.881 C62.8080025,10.881 63.2354982,10.8270005 63.5985,10.719 C63.9615018,10.6109995 64.2614988,10.461001 64.4985,10.269 C64.7355012,10.076999 64.9109994,9.84450136 65.025,9.5715 C65.1390006,9.29849864 65.196,9.00000162 65.196,8.676 C65.196,7.91399619 64.9680023,7.35750176 64.512,7.0065 C64.0559977,6.65549825 63.3480048,6.48 62.388,6.48 L60.012,6.48 L60.012,10.881 Z M81.828,11.556 C81.828,12.5220048 81.6750015,13.408496 81.369,14.2155 C81.0629985,15.022504 80.6310028,15.7169971 80.073,16.299 C79.5149972,16.8810029 78.8445039,17.3324984 78.0615,17.6535 C77.2784961,17.9745016 76.4130047,18.135 75.465,18.135 C74.5169953,18.135 73.6530039,17.9745016 72.873,17.6535 C72.0929961,17.3324984 71.4240028,16.8810029 70.866,16.299 C70.3079972,15.7169971 69.8760015,15.022504 69.57,14.2155 C69.2639985,13.408496 69.111,12.5220048 69.111,11.556 C69.111,10.5899952 69.2639985,9.70350404 69.57,8.8965 C69.8760015,8.08949596 70.3079972,7.39350292 70.866,6.8085 C71.4240028,6.22349707 72.0929961,5.76900162 72.873,5.445 C73.6530039,5.12099838 74.5169953,4.959 75.465,4.959 C76.4130047,4.959 77.2784961,5.12099838 78.0615,5.445 C78.8445039,5.76900162 79.5149972,6.22349707 80.073,6.8085 C80.6310028,7.39350292 81.0629985,8.08949596 81.369,8.8965 C81.6750015,9.70350404 81.828,10.5899952 81.828,11.556 Z M80.037,11.556 C80.037,10.763996 79.9290011,10.0530032 79.713,9.423 C79.4969989,8.79299685 79.191002,8.26050217 78.795,7.8255 C78.398998,7.39049782 77.9190028,7.05600117 77.355,6.822 C76.7909972,6.58799883 76.1610035,6.471 75.465,6.471 C74.7749966,6.471 74.1480028,6.58799883 73.584,6.822 C73.0199972,7.05600117 72.538502,7.39049782 72.1395,7.8255 C71.740498,8.26050217 71.4330011,8.79299685 71.217,9.423 C71.0009989,10.0530032 70.893,10.763996 70.893,11.556 C70.893,12.348004 71.0009989,13.0574969 71.217,13.6845 C71.4330011,14.3115031 71.740498,14.8424978 72.1395,15.2775 C72.538502,15.7125022 73.0199972,16.0454988 73.584,16.2765 C74.1480028,16.5075012 74.7749966,16.623 75.465,16.623 C76.1610035,16.623 76.7909972,16.5075012 77.355,16.2765 C77.9190028,16.0454988 78.398998,15.7125022 78.795,15.2775 C79.191002,14.8424978 79.4969989,14.3115031 79.713,13.6845 C79.9290011,13.0574969 80.037,12.348004 80.037,11.556 Z M85.221,5.103 C85.2990004,5.103 85.3649997,5.10749995 85.419,5.1165 C85.4730003,5.12550004 85.5209998,5.14049989 85.563,5.1615 C85.6050002,5.1825001 85.6469998,5.21249981 85.689,5.2515 C85.7310002,5.29050019 85.7759998,5.3399997 85.824,5.4 L93.285,15.111 C93.2729999,14.9549992 93.2625,14.8035007 93.2535,14.6565 C93.2445,14.5094993 93.24,14.3700007 93.24,14.238 L93.24,5.103 L94.77,5.103 L94.77,18 L93.897,18 C93.7589993,18 93.6435005,17.9760002 93.5505,17.928 C93.4574995,17.8799998 93.3660004,17.7990006 93.276,17.685 L85.815,7.974 C85.8270001,8.12400075 85.836,8.27099928 85.842,8.415 C85.848,8.55900072 85.851,8.6909994 85.851,8.811 L85.851,18 L84.321,18 L84.321,5.103 L85.221,5.103 Z M109.242,11.556 C109.242,12.5220048 109.089002,13.400996 108.783,14.193 C108.476998,14.985004 108.045003,15.6629972 107.487,16.227 C106.928997,16.7910028 106.258504,17.2274985 105.4755,17.5365 C104.692496,17.8455015 103.827005,18 102.879,18 L98.064,18 L98.064,5.103 L102.879,5.103 C103.827005,5.103 104.692496,5.25749845 105.4755,5.5665 C106.258504,5.87550154 106.928997,6.31349717 107.487,6.8805 C108.045003,7.44750283 108.476998,8.12699604 108.783,8.919 C109.089002,9.71100396 109.242,10.5899952 109.242,11.556 Z M107.451,11.556 C107.451,10.763996 107.343001,10.0560031 107.127,9.432 C106.910999,8.80799688 106.605002,8.28000216 106.209,7.848 C105.812998,7.41599784 105.333003,7.08600114 104.769,6.858 C104.204997,6.62999886 103.575003,6.516 102.879,6.516 L99.81,6.516 L99.81,16.587 L102.879,16.587 C103.575003,16.587 104.204997,16.4730011 104.769,16.245 C105.333003,16.0169989 105.812998,15.6885021 106.209,15.2595 C106.605002,14.8304979 106.910999,14.3040031 107.127,13.68 C107.343001,13.0559969 107.451,12.348004 107.451,11.556 Z M122.238,18 L120.888,18 C120.731999,18 120.606,17.9610004 120.51,17.883 C120.414,17.8049996 120.342,17.7060006 120.294,17.586 L119.088,14.472 L113.301,14.472 L112.095,17.586 C112.059,17.6940005 111.990001,17.7899996 111.888,17.874 C111.785999,17.9580004 111.660001,18 111.51,18 L110.16,18 L115.317,5.103 L117.081,5.103 L122.238,18 Z M113.787,13.212 L118.602,13.212 L116.577,7.965 C116.511,7.80899922 116.4465,7.62900102 116.3835,7.425 C116.3205,7.22099898 116.256,7.00200117 116.19,6.768 C116.13,7.00200117 116.0685,7.22249896 116.0055,7.4295 C115.9425,7.63650103 115.878,7.81799922 115.812,7.974 L113.787,13.212 Z M125.676,12.618 L125.676,18 L123.939,18 L123.939,5.103 L127.584,5.103 C128.400004,5.103 129.104997,5.18549917 129.699,5.3505 C130.293003,5.51550082 130.783498,5.75399844 131.1705,6.066 C131.557502,6.37800156 131.843999,6.75449779 132.03,7.1955 C132.216001,7.6365022 132.309,8.12999727 132.309,8.676 C132.309,9.13200228 132.237001,9.55799802 132.093,9.954 C131.948999,10.350002 131.740501,10.7054984 131.4675,11.0205 C131.194499,11.3355016 130.861502,11.6054989 130.4685,11.8305 C130.075498,12.0555011 129.630002,12.2219995 129.132,12.33 C129.360001,12.4740007 129.551999,12.6569989 129.708,12.879 L133.47,18 L131.922,18 C131.603998,18 131.370001,17.8770012 131.22,17.631 L127.872,13.023 C127.769999,12.8789993 127.660501,12.7755003 127.5435,12.7125 C127.426499,12.6494997 127.245001,12.618 126.999,12.618 L125.676,12.618 Z M125.676,11.349 L127.512,11.349 C128.016003,11.349 128.461498,11.2875006 128.8485,11.1645 C129.235502,11.0414994 129.559499,10.8675011 129.8205,10.6425 C130.081501,10.4174989 130.277999,10.1490016 130.41,9.837 C130.542001,9.52499844 130.608,9.18000189 130.608,8.802 C130.608,8.03399616 130.356003,7.45500195 129.852,7.065 C129.347997,6.67499805 128.592005,6.48 127.584,6.48 L125.676,6.48 L125.676,11.349 Z M7.9275,26.3875 L7.9275,27.025 L2.34,27.025 L2.34,31.4875 L7.1775,31.4875 L7.1775,32.125 L2.34,32.125 L2.34,37 L1.5675,37 L1.5675,26.3875 L7.9275,26.3875 Z M9.6975,37 L9.6975,29.5375 L10.08,29.5375 C10.1650004,29.5375 10.2249998,29.5549998 10.26,29.59 C10.2950002,29.6250002 10.3175,29.6849996 10.3275,29.77 L10.38,31.3375 C10.4950006,31.0324985 10.6262493,30.7612512 10.77375,30.52375 C10.9212507,30.2862488 11.091249,30.0850008 11.28375,29.92 C11.476251,29.7549992 11.6912488,29.6287504 11.92875,29.54125 C12.1662512,29.4537496 12.4299986,29.41 12.72,29.41 C12.8750008,29.41 13.0274992,29.4237499 13.1775,29.45125 C13.3275008,29.4787501 13.4599994,29.5274996 13.575,29.5975 L13.515,30.0925 C13.4899999,30.1725004 13.4425004,30.2125 13.3725,30.2125 C13.3124997,30.2125 13.2212506,30.1950002 13.09875,30.16 C12.9762494,30.1249998 12.815001,30.1075 12.615,30.1075 C12.3249986,30.1075 12.0675011,30.1524995 11.8425,30.2425 C11.6174989,30.3325004 11.4175009,30.4637491 11.2425,30.63625 C11.0674991,30.8087509 10.9137507,31.0237487 10.78125,31.28125 C10.6487493,31.5387513 10.5275006,31.8349983 10.4175,32.17 L10.4175,37 L9.6975,37 Z M17.955,29.4175 C18.4900027,29.4175 18.9687479,29.5087491 19.39125,29.69125 C19.8137521,29.8737509 20.1699985,30.1324983 20.46,30.4675 C20.7500014,30.8025017 20.9712492,31.2062476 21.12375,31.67875 C21.2762508,32.1512524 21.3525,32.6799971 21.3525,33.265 C21.3525,33.8500029 21.2762508,34.3774977 21.12375,34.8475 C20.9712492,35.3175023 20.7500014,35.7199983 20.46,36.055 C20.1699985,36.3900017 19.8137521,36.6474991 19.39125,36.8275 C18.9687479,37.0075009 18.4900027,37.0975 17.955,37.0975 C17.4199973,37.0975 16.9412521,37.0075009 16.51875,36.8275 C16.0962479,36.6474991 15.7387515,36.3900017 15.44625,36.055 C15.1537485,35.7199983 14.9312508,35.3175023 14.77875,34.8475 C14.6262492,34.3774977 14.55,33.8500029 14.55,33.265 C14.55,32.6799971 14.6262492,32.1512524 14.77875,31.67875 C14.9312508,31.2062476 15.1537485,30.8025017 15.44625,30.4675 C15.7387515,30.1324983 16.0962479,29.8737509 16.51875,29.69125 C16.9412521,29.5087491 17.4199973,29.4175 17.955,29.4175 Z M17.955,36.535 C18.4000022,36.535 18.7887483,36.4587508 19.12125,36.30625 C19.4537517,36.1537492 19.7312489,35.9350014 19.95375,35.65 C20.1762511,35.3649986 20.3424995,35.021252 20.4525,34.61875 C20.5625006,34.216248 20.6175,33.7650025 20.6175,33.265 C20.6175,32.7699975 20.5625006,32.320002 20.4525,31.915 C20.3424995,31.509998 20.1762511,31.1637514 19.95375,30.87625 C19.7312489,30.5887486 19.4537517,30.3675008 19.12125,30.2125 C18.7887483,30.0574992 18.4000022,29.98 17.955,29.98 C17.5099978,29.98 17.1212517,30.0574992 16.78875,30.2125 C16.4562483,30.3675008 16.1787511,30.5887486 15.95625,30.87625 C15.7337489,31.1637514 15.5662506,31.509998 15.45375,31.915 C15.3412494,32.320002 15.285,32.7699975 15.285,33.265 C15.285,33.7650025 15.3412494,34.216248 15.45375,34.61875 C15.5662506,35.021252 15.7337489,35.3649986 15.95625,35.65 C16.1787511,35.9350014 16.4562483,36.1537492 16.78875,36.30625 C17.1212517,36.4587508 17.5099978,36.535 17.955,36.535 Z M23.37,37 L23.37,29.5375 L23.7675,29.5375 C23.8925006,29.5375 23.9649999,29.5999994 23.985,29.725 L24.0525,30.85 C24.3975017,30.4149978 24.7949977,30.0675013 25.245,29.8075 C25.6950022,29.5474987 26.1999972,29.4175 26.76,29.4175 C27.170002,29.4175 27.5312484,29.4824994 27.84375,29.6125 C28.1562516,29.7425007 28.414999,29.9299988 28.62,30.175 C28.825001,30.4200012 28.9799995,30.7149983 29.085,31.06 C29.1900005,31.4050017 29.2425,31.7949978 29.2425,32.23 L29.2425,37 L28.5225,37 L28.5225,32.23 C28.5225,31.5299965 28.3625016,30.981252 28.0425,30.58375 C27.7224984,30.186248 27.2350033,29.9875 26.58,29.9875 C26.0899975,29.9875 25.6350021,30.1112488 25.215,30.35875 C24.7949979,30.6062512 24.4200016,30.9499978 24.09,31.39 L24.09,37 L23.37,37 Z M33.66,37.12 C33.1549975,37.12 32.7612514,36.9800014 32.47875,36.7 C32.1962486,36.4199986 32.055,35.9875029 32.055,35.4025 L32.055,30.3025 L30.9825,30.3025 C30.9274997,30.3025 30.8825002,30.2875001 30.8475,30.2575 C30.8124998,30.2274999 30.795,30.1850003 30.795,30.13 L30.795,29.8525 L32.07,29.7625 L32.25,27.0925 C32.2600001,27.0474998 32.2799999,27.0075002 32.31,26.9725 C32.3400002,26.9374998 32.3824997,26.92 32.4375,26.92 L32.775,26.92 L32.775,29.77 L35.13,29.77 L35.13,30.3025 L32.775,30.3025 L32.775,35.365 C32.775,35.570001 32.8012497,35.7462493 32.85375,35.89375 C32.9062503,36.0412507 32.9787495,36.1624995 33.07125,36.2575 C33.1637505,36.3525005 33.2724994,36.4224998 33.3975,36.4675 C33.5225006,36.5125002 33.6574993,36.535 33.8025,36.535 C33.9825009,36.535 34.1374993,36.5087503 34.2675,36.45625 C34.3975006,36.4037497 34.5099995,36.3462503 34.605,36.28375 C34.7000005,36.2212497 34.7774997,36.1637503 34.8375,36.11125 C34.8975003,36.0587497 34.9449998,36.0325 34.98,36.0325 C35.0200002,36.0325 35.0599998,36.0574997 35.1,36.1075 L35.295,36.4225 C35.1049991,36.6325011 34.8637515,36.8012494 34.57125,36.92875 C34.2787485,37.0562506 33.9750016,37.12 33.66,37.12 Z M36.5625,32.245 L40.05,32.245 L40.05,32.8525 L36.5625,32.8525 L36.5625,32.245 Z M45.225,29.4175 C45.6450021,29.4175 46.0349982,29.4899993 46.395,29.635 C46.7550018,29.7800007 47.0674987,29.9912486 47.3325,30.26875 C47.5975013,30.5462514 47.8062492,30.887498 47.95875,31.2925 C48.1112508,31.697502 48.1875,32.1624974 48.1875,32.6875 C48.1875,32.7975005 48.1725002,32.8724998 48.1425,32.9125 C48.1124998,32.9525002 48.0625004,32.9725 47.9925,32.9725 L42.5625,32.9725 L42.5625,33.115 C42.5625,33.6750028 42.6274994,34.1674979 42.7575,34.5925 C42.8875007,35.0175021 43.0724988,35.3737486 43.3125,35.66125 C43.5525012,35.9487514 43.8424983,36.1649993 44.1825,36.31 C44.5225017,36.4550007 44.9024979,36.5275 45.3225,36.5275 C45.6975019,36.5275 46.0224986,36.4862504 46.2975,36.40375 C46.5725014,36.3212496 46.8037491,36.2287505 46.99125,36.12625 C47.1787509,36.0237495 47.3274995,35.9312504 47.4375,35.84875 C47.5475006,35.7662496 47.6274998,35.725 47.6775,35.725 C47.7425003,35.725 47.7924998,35.7499998 47.8275,35.8 L48.0225,36.04 C47.9024994,36.1900007 47.743751,36.3299994 47.54625,36.46 C47.348749,36.5900007 47.1287512,36.7012495 46.88625,36.79375 C46.6437488,36.8862505 46.3837514,36.9599997 46.10625,37.015 C45.8287486,37.0700003 45.5500014,37.0975 45.27,37.0975 C44.7599975,37.0975 44.2950021,37.0087509 43.875,36.83125 C43.4549979,36.6537491 43.0950015,36.3950017 42.795,36.055 C42.4949985,35.7149983 42.2637508,35.2987525 42.10125,34.80625 C41.9387492,34.3137475 41.8575,33.7500032 41.8575,33.115 C41.8575,32.5799973 41.9337492,32.0862523 42.08625,31.63375 C42.2387508,31.1812477 42.4587486,30.7912516 42.74625,30.46375 C43.0337514,30.1362484 43.3862479,29.8800009 43.80375,29.695 C44.2212521,29.5099991 44.6949974,29.4175 45.225,29.4175 Z M45.2325,29.95 C44.8474981,29.95 44.5025015,30.0099994 44.1975,30.13 C43.8924985,30.2500006 43.6287511,30.4224989 43.40625,30.6475 C43.1837489,30.8725011 43.0037507,31.1424984 42.86625,31.4575 C42.7287493,31.7725016 42.6375002,32.1249981 42.5925,32.515 L47.5425,32.515 C47.5425,32.114998 47.4862506,31.7562516 47.37375,31.43875 C47.2612494,31.1212484 47.102501,30.8525011 46.8975,30.6325 C46.692499,30.4124989 46.4487514,30.2437506 46.16625,30.12625 C45.8837486,30.0087494 45.5725017,29.95 45.2325,29.95 Z M50.13,37 L50.13,29.5375 L50.5275,29.5375 C50.6525006,29.5375 50.7249999,29.5999994 50.745,29.725 L50.8125,30.85 C51.1575017,30.4149978 51.5549977,30.0675013 52.005,29.8075 C52.4550022,29.5474987 52.9599972,29.4175 53.52,29.4175 C53.930002,29.4175 54.2912484,29.4824994 54.60375,29.6125 C54.9162516,29.7425007 55.174999,29.9299988 55.38,30.175 C55.585001,30.4200012 55.7399995,30.7149983 55.845,31.06 C55.9500005,31.4050017 56.0025,31.7949978 56.0025,32.23 L56.0025,37 L55.2825,37 L55.2825,32.23 C55.2825,31.5299965 55.1225016,30.981252 54.8025,30.58375 C54.4824984,30.186248 53.9950033,29.9875 53.34,29.9875 C52.8499975,29.9875 52.3950021,30.1112488 51.975,30.35875 C51.5549979,30.6062512 51.1800016,30.9499978 50.85,31.39 L50.85,37 L50.13,37 Z M63.795,37 C63.6649993,37 63.5900001,36.9350006 63.57,36.805 L63.495,35.6275 C63.1649983,36.0775023 62.7800022,36.4349987 62.34,36.7 C61.8999978,36.9650013 61.4050027,37.0975 60.855,37.0975 C59.9349954,37.0975 59.2200025,36.7800032 58.71,36.145 C58.1999974,35.5099968 57.945,34.5575063 57.945,33.2875 C57.945,32.7424973 58.0162493,32.2337524 58.15875,31.76125 C58.3012507,31.2887476 58.5099986,30.8787517 58.785,30.53125 C59.0600014,30.1837483 59.398748,29.910001 59.80125,29.71 C60.203752,29.509999 60.6674974,29.41 61.1925,29.41 C61.6975025,29.41 62.1349981,29.5037491 62.505,29.69125 C62.8750018,29.8787509 63.1974986,30.1524982 63.4725,30.5125 L63.4725,26.0875 L64.185,26.0875 L64.185,37 L63.795,37 Z M61.0575,36.52 C61.5475025,36.52 61.993748,36.3925013 62.39625,36.1375 C62.798752,35.8824987 63.1574984,35.5250023 63.4725,35.065 L63.4725,31.15 C63.1874986,30.7199978 62.8712517,30.4162509 62.52375,30.23875 C62.1762483,30.0612491 61.7800022,29.9725 61.335,29.9725 C60.8949978,29.9725 60.5100017,30.0524992 60.18,30.2125 C59.8499984,30.3725008 59.5737511,30.5987485 59.35125,30.89125 C59.1287489,31.1837515 58.9612506,31.533748 58.84875,31.94125 C58.7362494,32.348752 58.68,32.7974976 58.68,33.2875 C58.68,34.3975056 58.883748,35.2137474 59.29125,35.73625 C59.698752,36.2587526 60.2874962,36.52 61.0575,36.52 Z M79.995,31.69 C79.995,32.5100041 79.8725012,33.2474967 79.6275,33.9025 C79.3824988,34.5575033 79.0375022,35.1149977 78.5925,35.575 C78.1474978,36.0350023 77.6137531,36.3874988 76.99125,36.6325 C76.3687469,36.8775012 75.6825038,37 74.9325,37 L71.055,37 L71.055,26.3875 L74.9325,26.3875 C75.6825038,26.3875 76.3687469,26.5099988 76.99125,26.755 C77.6137531,27.0000012 78.1474978,27.3524977 78.5925,27.8125 C79.0375022,28.2725023 79.3824988,28.8299967 79.6275,29.485 C79.8725012,30.1400033 79.995,30.8749959 79.995,31.69 Z M79.2,31.69 C79.2,30.9499963 79.097501,30.2900029 78.8925,29.71 C78.687499,29.1299971 78.3975019,28.640002 78.0225,28.24 C77.6474981,27.839998 77.1975026,27.5350011 76.6725,27.325 C76.1474974,27.114999 75.5675032,27.01 74.9325,27.01 L71.8275,27.01 L71.8275,36.3775 L74.9325,36.3775 C75.5675032,36.3775 76.1474974,36.2725011 76.6725,36.0625 C77.1975026,35.8524989 77.6474981,35.547502 78.0225,35.1475 C78.3975019,34.747498 78.687499,34.2575029 78.8925,33.6775 C79.097501,33.0974971 79.2,32.4350037 79.2,31.69 Z M85.035,29.4175 C85.4550021,29.4175 85.8449982,29.4899993 86.205,29.635 C86.5650018,29.7800007 86.8774987,29.9912486 87.1425,30.26875 C87.4075013,30.5462514 87.6162492,30.887498 87.76875,31.2925 C87.9212508,31.697502 87.9975,32.1624974 87.9975,32.6875 C87.9975,32.7975005 87.9825002,32.8724998 87.9525,32.9125 C87.9224999,32.9525002 87.8725004,32.9725 87.8025,32.9725 L82.3725,32.9725 L82.3725,33.115 C82.3725,33.6750028 82.4374994,34.1674979 82.5675,34.5925 C82.6975007,35.0175021 82.8824988,35.3737486 83.1225,35.66125 C83.3625012,35.9487514 83.6524983,36.1649993 83.9925,36.31 C84.3325017,36.4550007 84.7124979,36.5275 85.1325,36.5275 C85.5075019,36.5275 85.8324986,36.4862504 86.1075,36.40375 C86.3825014,36.3212496 86.6137491,36.2287505 86.80125,36.12625 C86.9887509,36.0237495 87.1374995,35.9312504 87.2475,35.84875 C87.3575006,35.7662496 87.4374998,35.725 87.4875,35.725 C87.5525003,35.725 87.6024998,35.7499998 87.6375,35.8 L87.8325,36.04 C87.7124994,36.1900007 87.553751,36.3299994 87.35625,36.46 C87.158749,36.5900007 86.9387512,36.7012495 86.69625,36.79375 C86.4537488,36.8862505 86.1937514,36.9599997 85.91625,37.015 C85.6387486,37.0700003 85.3600014,37.0975 85.08,37.0975 C84.5699975,37.0975 84.1050021,37.0087509 83.685,36.83125 C83.2649979,36.6537491 82.9050015,36.3950017 82.605,36.055 C82.3049985,35.7149983 82.0737508,35.2987525 81.91125,34.80625 C81.7487492,34.3137475 81.6675,33.7500032 81.6675,33.115 C81.6675,32.5799973 81.7437492,32.0862523 81.89625,31.63375 C82.0487508,31.1812477 82.2687486,30.7912516 82.55625,30.46375 C82.8437514,30.1362484 83.1962479,29.8800009 83.61375,29.695 C84.0312521,29.5099991 84.5049974,29.4175 85.035,29.4175 Z M85.0425,29.95 C84.6574981,29.95 84.3125015,30.0099994 84.0075,30.13 C83.7024985,30.2500006 83.4387511,30.4224989 83.21625,30.6475 C82.9937489,30.8725011 82.8137507,31.1424984 82.67625,31.4575 C82.5387493,31.7725016 82.4475002,32.1249981 82.4025,32.515 L87.3525,32.515 C87.3525,32.114998 87.2962506,31.7562516 87.18375,31.43875 C87.0712494,31.1212484 86.912501,30.8525011 86.7075,30.6325 C86.502499,30.4124989 86.2587514,30.2437506 85.97625,30.12625 C85.6937486,30.0087494 85.3825017,29.95 85.0425,29.95 Z M92.7825,37 L92.1525,37 L89.0025,29.5375 L89.565,29.5375 C89.6350003,29.5375 89.6924998,29.5562498 89.7375,29.59375 C89.7825002,29.6312502 89.8124999,29.6724998 89.8275,29.7175 L92.295,35.605 C92.3700004,35.8200011 92.4299998,36.0349989 92.475,36.25 C92.5200002,36.0349989 92.5824996,35.8200011 92.6625,35.605 L95.1375,29.7175 C95.1625001,29.6624997 95.1962498,29.6187502 95.23875,29.58625 C95.2812502,29.5537498 95.3324997,29.5375 95.3925,29.5375 L95.9325,29.5375 L92.7825,37 Z M100.38,29.4175 C100.800002,29.4175 101.189998,29.4899993 101.55,29.635 C101.910002,29.7800007 102.222499,29.9912486 102.4875,30.26875 C102.752501,30.5462514 102.961249,30.887498 103.11375,31.2925 C103.266251,31.697502 103.3425,32.1624974 103.3425,32.6875 C103.3425,32.7975005 103.3275,32.8724998 103.2975,32.9125 C103.2675,32.9525002 103.2175,32.9725 103.1475,32.9725 L97.7175,32.9725 L97.7175,33.115 C97.7175,33.6750028 97.7824994,34.1674979 97.9125,34.5925 C98.0425007,35.0175021 98.2274988,35.3737486 98.4675,35.66125 C98.7075012,35.9487514 98.9974983,36.1649993 99.3375,36.31 C99.6775017,36.4550007 100.057498,36.5275 100.4775,36.5275 C100.852502,36.5275 101.177499,36.4862504 101.4525,36.40375 C101.727501,36.3212496 101.958749,36.2287505 102.14625,36.12625 C102.333751,36.0237495 102.482499,35.9312504 102.5925,35.84875 C102.702501,35.7662496 102.7825,35.725 102.8325,35.725 C102.8975,35.725 102.9475,35.7499998 102.9825,35.8 L103.1775,36.04 C103.057499,36.1900007 102.898751,36.3299994 102.70125,36.46 C102.503749,36.5900007 102.283751,36.7012495 102.04125,36.79375 C101.798749,36.8862505 101.538751,36.9599997 101.26125,37.015 C100.983749,37.0700003 100.705001,37.0975 100.425,37.0975 C99.9149975,37.0975 99.4500021,37.0087509 99.03,36.83125 C98.6099979,36.6537491 98.2500015,36.3950017 97.95,36.055 C97.6499985,35.7149983 97.4187508,35.2987525 97.25625,34.80625 C97.0937492,34.3137475 97.0125,33.7500032 97.0125,33.115 C97.0125,32.5799973 97.0887492,32.0862523 97.24125,31.63375 C97.3937508,31.1812477 97.6137486,30.7912516 97.90125,30.46375 C98.1887514,30.1362484 98.5412479,29.8800009 98.95875,29.695 C99.3762521,29.5099991 99.8499974,29.4175 100.38,29.4175 Z M100.3875,29.95 C100.002498,29.95 99.6575015,30.0099994 99.3525,30.13 C99.0474985,30.2500006 98.7837511,30.4224989 98.56125,30.6475 C98.3387489,30.8725011 98.1587507,31.1424984 98.02125,31.4575 C97.8837493,31.7725016 97.7925002,32.1249981 97.7475,32.515 L102.6975,32.515 C102.6975,32.114998 102.641251,31.7562516 102.52875,31.43875 C102.416249,31.1212484 102.257501,30.8525011 102.0525,30.6325 C101.847499,30.4124989 101.603751,30.2437506 101.32125,30.12625 C101.038749,30.0087494 100.727502,29.95 100.3875,29.95 Z M106.0725,26.0875 L106.0725,37 L105.3525,37 L105.3525,26.0875 L106.0725,26.0875 Z M111.555,29.4175 C112.090003,29.4175 112.568748,29.5087491 112.99125,29.69125 C113.413752,29.8737509 113.769999,30.1324983 114.06,30.4675 C114.350001,30.8025017 114.571249,31.2062476 114.72375,31.67875 C114.876251,32.1512524 114.9525,32.6799971 114.9525,33.265 C114.9525,33.8500029 114.876251,34.3774977 114.72375,34.8475 C114.571249,35.3175023 114.350001,35.7199983 114.06,36.055 C113.769999,36.3900017 113.413752,36.6474991 112.99125,36.8275 C112.568748,37.0075009 112.090003,37.0975 111.555,37.0975 C111.019997,37.0975 110.541252,37.0075009 110.11875,36.8275 C109.696248,36.6474991 109.338751,36.3900017 109.04625,36.055 C108.753749,35.7199983 108.531251,35.3175023 108.37875,34.8475 C108.226249,34.3774977 108.15,33.8500029 108.15,33.265 C108.15,32.6799971 108.226249,32.1512524 108.37875,31.67875 C108.531251,31.2062476 108.753749,30.8025017 109.04625,30.4675 C109.338751,30.1324983 109.696248,29.8737509 110.11875,29.69125 C110.541252,29.5087491 111.019997,29.4175 111.555,29.4175 Z M111.555,36.535 C112.000002,36.535 112.388748,36.4587508 112.72125,36.30625 C113.053752,36.1537492 113.331249,35.9350014 113.55375,35.65 C113.776251,35.3649986 113.942499,35.021252 114.0525,34.61875 C114.162501,34.216248 114.2175,33.7650025 114.2175,33.265 C114.2175,32.7699975 114.162501,32.320002 114.0525,31.915 C113.942499,31.509998 113.776251,31.1637514 113.55375,30.87625 C113.331249,30.5887486 113.053752,30.3675008 112.72125,30.2125 C112.388748,30.0574992 112.000002,29.98 111.555,29.98 C111.109998,29.98 110.721252,30.0574992 110.38875,30.2125 C110.056248,30.3675008 109.778751,30.5887486 109.55625,30.87625 C109.333749,31.1637514 109.166251,31.509998 109.05375,31.915 C108.941249,32.320002 108.885,32.7699975 108.885,33.265 C108.885,33.7650025 108.941249,34.216248 109.05375,34.61875 C109.166251,35.021252 109.333749,35.3649986 109.55625,35.65 C109.778751,35.9350014 110.056248,36.1537492 110.38875,36.30625 C110.721252,36.4587508 111.109998,36.535 111.555,36.535 Z M116.97,39.64 L116.97,29.5375 L117.3675,29.5375 C117.492501,29.5375 117.565,29.5999994 117.585,29.725 L117.6525,30.88 C117.982502,30.4299977 118.369998,30.0725013 118.815,29.8075 C119.260002,29.5424987 119.757497,29.41 120.3075,29.41 C121.222505,29.41 121.936247,29.7274968 122.44875,30.3625 C122.961253,30.9975032 123.2175,31.9499936 123.2175,33.22 C123.2175,33.7650027 123.146251,34.2737476 123.00375,34.74625 C122.861249,35.2187524 122.651251,35.6287483 122.37375,35.97625 C122.096249,36.3237517 121.756252,36.597499 121.35375,36.7975 C120.951248,36.997501 120.487503,37.0975 119.9625,37.0975 C119.457497,37.0975 119.020002,37.0050009 118.65,36.82 C118.279998,36.6349991 117.960001,36.3625018 117.69,36.0025 L117.69,39.64 L116.97,39.64 Z M120.105,29.9875 C119.609998,29.9875 119.162502,30.1149987 118.7625,30.37 C118.362498,30.6250013 118.005002,30.9799977 117.69,31.435 L117.69,35.3725 C117.975001,35.8025022 118.289998,36.1037491 118.635,36.27625 C118.980002,36.4487509 119.377498,36.535 119.8275,36.535 C120.267502,36.535 120.652498,36.4550008 120.9825,36.295 C121.312502,36.1349992 121.588749,35.9087515 121.81125,35.61625 C122.033751,35.3237485 122.201249,34.973752 122.31375,34.56625 C122.426251,34.158748 122.4825,33.7100025 122.4825,33.22 C122.4825,32.1099945 122.277502,31.2937526 121.8675,30.77125 C121.457498,30.2487474 120.870004,29.9875 120.105,29.9875 Z M128.16,29.4175 C128.580002,29.4175 128.969998,29.4899993 129.33,29.635 C129.690002,29.7800007 130.002499,29.9912486 130.2675,30.26875 C130.532501,30.5462514 130.741249,30.887498 130.89375,31.2925 C131.046251,31.697502 131.1225,32.1624974 131.1225,32.6875 C131.1225,32.7975005 131.1075,32.8724998 131.0775,32.9125 C131.0475,32.9525002 130.9975,32.9725 130.9275,32.9725 L125.4975,32.9725 L125.4975,33.115 C125.4975,33.6750028 125.562499,34.1674979 125.6925,34.5925 C125.822501,35.0175021 126.007499,35.3737486 126.2475,35.66125 C126.487501,35.9487514 126.777498,36.1649993 127.1175,36.31 C127.457502,36.4550007 127.837498,36.5275 128.2575,36.5275 C128.632502,36.5275 128.957499,36.4862504 129.2325,36.40375 C129.507501,36.3212496 129.738749,36.2287505 129.92625,36.12625 C130.113751,36.0237495 130.262499,35.9312504 130.3725,35.84875 C130.482501,35.7662496 130.5625,35.725 130.6125,35.725 C130.6775,35.725 130.7275,35.7499998 130.7625,35.8 L130.9575,36.04 C130.837499,36.1900007 130.678751,36.3299994 130.48125,36.46 C130.283749,36.5900007 130.063751,36.7012495 129.82125,36.79375 C129.578749,36.8862505 129.318751,36.9599997 129.04125,37.015 C128.763749,37.0700003 128.485001,37.0975 128.205,37.0975 C127.694997,37.0975 127.230002,37.0087509 126.81,36.83125 C126.389998,36.6537491 126.030002,36.3950017 125.73,36.055 C125.429999,35.7149983 125.198751,35.2987525 125.03625,34.80625 C124.873749,34.3137475 124.7925,33.7500032 124.7925,33.115 C124.7925,32.5799973 124.868749,32.0862523 125.02125,31.63375 C125.173751,31.1812477 125.393749,30.7912516 125.68125,30.46375 C125.968751,30.1362484 126.321248,29.8800009 126.73875,29.695 C127.156252,29.5099991 127.629997,29.4175 128.16,29.4175 Z M128.1675,29.95 C127.782498,29.95 127.437502,30.0099994 127.1325,30.13 C126.827498,30.2500006 126.563751,30.4224989 126.34125,30.6475 C126.118749,30.8725011 125.938751,31.1424984 125.80125,31.4575 C125.663749,31.7725016 125.5725,32.1249981 125.5275,32.515 L130.4775,32.515 C130.4775,32.114998 130.421251,31.7562516 130.30875,31.43875 C130.196249,31.1212484 130.037501,30.8525011 129.8325,30.6325 C129.627499,30.4124989 129.383751,30.2437506 129.10125,30.12625 C128.818749,30.0087494 128.507502,29.95 128.1675,29.95 Z M133.065,37 L133.065,29.5375 L133.4475,29.5375 C133.5325,29.5375 133.5925,29.5549998 133.6275,29.59 C133.6625,29.6250002 133.685,29.6849996 133.695,29.77 L133.7475,31.3375 C133.862501,31.0324985 133.993749,30.7612512 134.14125,30.52375 C134.288751,30.2862488 134.458749,30.0850008 134.65125,29.92 C134.843751,29.7549992 135.058749,29.6287504 135.29625,29.54125 C135.533751,29.4537496 135.797499,29.41 136.0875,29.41 C136.242501,29.41 136.394999,29.4237499 136.545,29.45125 C136.695001,29.4787501 136.827499,29.5274996 136.9425,29.5975 L136.8825,30.0925 C136.8575,30.1725004 136.81,30.2125 136.74,30.2125 C136.68,30.2125 136.588751,30.1950002 136.46625,30.16 C136.343749,30.1249998 136.182501,30.1075 135.9825,30.1075 C135.692499,30.1075 135.435001,30.1524995 135.21,30.2425 C134.984999,30.3325004 134.785001,30.4637491 134.61,30.63625 C134.434999,30.8087509 134.281251,31.0237487 134.14875,31.28125 C134.016249,31.5387513 133.895001,31.8349983 133.785,32.17 L133.785,37 L133.065,37 Z" id="YURIY-BONDAR-Front-e" fill="#E0EDF0"></path>
                            <g id="logo" transform="translate(0.000000, 15.000000)"></g>
                        </g>
                    </g>
                </g>
            </g>
        </g>
    </g>
</svg>