<svg xmlns="http://www.w3.org/2000/svg" xmlns:xlink="http://www.w3.org/1999/xlink" width="53" height="52" viewBox="0 0 53 52"><defs><path id="uvhla" d="M1125.09 1769v-52h52.34v52z"/><path id="uvhlb" d="M1144.086 1732.434h14.925v20.888h-14.925zm4.068-1.67c0-.162.134-.288.3-.288h6.188c.166 0 .301.129.301.288v.077a.292.292 0 0 1-.3.289h-6.19c-.163 0-.3-.13-.3-.289zm3.4 26.083c-.754 0-1.366-.585-1.366-1.305 0-.721.612-1.306 1.366-1.306.754 0 1.366.585 1.366 1.306 0 .72-.612 1.305-1.366 1.305zm6.1 1.089s2.713 0 2.713-2.615v-23.536c0-2.615-2.713-2.615-2.713-2.615h-12.21s-2.714 0-2.714 2.615v23.536c0 2.615 2.713 2.615 2.713 2.615z"/><clipPath id="uvhlc"><use fill="#fff" xlink:href="#uvhla"/></clipPath></defs><g><g transform="translate(-1125 -1717)"><g><g><use fill="#e0edf0" xlink:href="#uvhlb"/></g></g><g><g><use fill="#fff" fill-opacity="0" stroke="#e0edf0" stroke-miterlimit="50" stroke-width="3.87" clip-path="url(&quot;#uvhlc&quot;)" xlink:href="#uvhla"/></g></g></g></g></svg>