<svg xmlns="http://www.w3.org/2000/svg" xmlns:xlink="http://www.w3.org/1999/xlink" width="45" height="50" viewBox="0 0 45 50"><defs><path id="1wwpa" d="M652.47 1213.527c1.23-.701 2.83-.704 4.06 0 6.18 3.48 12.362 6.954 18.542 10.436 1.162.653 1.94 1.942 1.928 3.276v20.936c.009 1.39-.846 2.71-2.072 3.347-6.16 3.461-12.317 6.926-18.477 10.387-1.255.715-2.888.66-4.104-.114-1.847-1.067-3.697-2.128-5.544-3.194-.377-.224-.803-.403-1.07-.767.236-.317.657-.356 1-.494.77-.245 1.479-.637 2.187-1.017.179-.122.398-.076.57.034 1.579.902 3.144 1.83 4.728 2.724.339.195.68-.064.97-.224 6.045-3.404 12.097-6.796 18.141-10.201a.597.597 0 0 0 .33-.59c.004-6.905.001-13.813.002-20.72a.647.647 0 0 0-.387-.645c-6.139-3.445-12.275-6.895-18.412-10.341a.641.641 0 0 0-.724-.001c-6.137 3.447-12.272 6.9-18.41 10.345a.64.64 0 0 0-.39.642c.002 6.907 0 13.815 0 20.722a.586.586 0 0 0 .335.581c1.638.926 3.278 1.845 4.917 2.767.923.495 2.057.79 3.074.41a2.324 2.324 0 0 0 1.51-2.183c.008-6.866-.004-13.734.006-20.599-.022-.304.268-.556.565-.528.787-.005 1.575-.01 2.362.003.329-.008.555.32.514.627-.003 6.91.009 13.82-.005 20.73.002 1.84-.757 3.844-2.467 4.746-2.106 1.087-4.709.856-6.789-.186-1.801-.896-3.52-1.953-5.29-2.913-1.228-.634-2.079-1.959-2.07-3.348v-20.936c-.013-1.362.796-2.674 1.994-3.317 6.16-3.464 12.317-6.93 18.476-10.395z"/><path id="1wwpb" d="M658.088 1228.07c2.728-.175 5.648-.104 8.102 1.23 1.9 1.022 2.954 3.168 2.987 5.264-.053.283-.35.439-.622.42-.792-.001-1.583.01-2.375-.006-.335.013-.53-.294-.572-.589-.228-1.003-.779-1.996-1.73-2.48-1.459-.726-3.151-.69-4.743-.674-1.162.061-2.41.161-3.395.84-.756.513-.985 1.55-.716 2.386.255.6.952.794 1.523.972 3.287.854 6.77.769 9.994 1.892 1.335.458 2.64 1.348 3.097 2.736.598 1.86.336 4.083-.997 5.576-1.08 1.229-2.654 1.898-4.224 2.261-2.089.462-4.256.474-6.377.269-1.995-.226-4.07-.746-5.61-2.096-1.316-1.135-1.96-2.903-1.896-4.61.016-.288.305-.49.583-.466.797-.006 1.594-.008 2.39.001.319-.022.555.25.571.549.147.955.509 1.958 1.348 2.525 1.62 1.037 3.652.966 5.506.995 1.537-.067 3.262-.088 4.515-1.096.662-.575.858-1.537.68-2.365-.195-.7-.93-1.025-1.563-1.238-3.245-1.019-6.767-.65-9.98-1.802-1.305-.457-2.567-1.323-3.068-2.654-.7-1.883-.379-4.213 1.094-5.656 1.435-1.435 3.508-1.987 5.478-2.185z"/></defs><g><g transform="translate(-632 -1213)"><g><use fill="#8cc84b" xlink:href="#1wwpa"/></g><g><use fill="#8cc84b" xlink:href="#1wwpb"/></g></g></g></svg>