<svg xmlns="http://www.w3.org/2000/svg" xmlns:xlink="http://www.w3.org/1999/xlink" width="45" height="51" viewBox="0 0 45 51"><defs><path id="1i76a" d="M557.55 1370.419L578.886 1358l21.336 12.419v24.817l-21.336 12.42-21.336-12.42z"/><path id="1i76b" d="M579.28 1383.459l20.139-11.489.81 23.158-20.949 12.532z"/><path id="1i76c" d="M581.965 1385.628l.06 16.056 6.909-4.014-.02-12.101 3.485-2.058v12.142l3.484-2.037.02-16.255-13.938 8.267zm17.483-14.438l-.06 24.444-20.788 12.022-.1-24.025 20.948-12.441z"/><path id="1i76d" d="M581.241 1405.723c-.964.54-1.727.1-1.727-1.001v-19.083c0-1.102.783-2.443 1.727-2.984l16.546-9.472c.964-.54 1.727-.1 1.727 1.002v19.083c0 1.101-.783 2.443-1.727 2.983l-16.546 9.472zm-23.755-31.839c0-1.101.783-1.542 1.727-1.001l17.048 9.772c.964.54 1.727 1.902 1.727 2.984v19.383c0 1.101-.783 1.542-1.727 1.001l-17.048-9.772c-.964-.54-1.727-1.902-1.727-2.983zm39.648-4.065c.964.54.964 1.442 0 1.983l-16.67 9.551c-.965.54-2.511.54-3.475 0l-16.913-9.691c-.964-.541-.964-1.442 0-1.983l16.671-9.551c.964-.541 2.51-.541 3.475 0l16.912 9.691zm-16.897-11.414c-.964-.54-2.51-.54-3.474 0l-19.036 10.914c-.964.54-1.727 1.902-1.727 2.983v21.827c0 1.101.783 2.443 1.727 2.983l19.036 10.914c.964.54 2.51.54 3.474 0l19.036-10.914c.964-.54 1.727-1.902 1.727-2.983v-21.827c0-1.101-.783-2.443-1.727-2.983z"/></defs><g><g transform="translate(-556 -1358)"><g><use fill="#c00" xlink:href="#1i76a"/></g><g><use fill="#fff" xlink:href="#1i76b"/></g><g><use fill="#c00" xlink:href="#1i76c"/></g><g><use fill="#910505" xlink:href="#1i76d"/></g></g></g></svg>