<svg xmlns="http://www.w3.org/2000/svg" xmlns:xlink="http://www.w3.org/1999/xlink" width="11" height="21" viewBox="0 0 11 21"><defs><path id="9jxla" d="M520.373 2364.701h-7.756c-.536 0-.97-.45-.97-1.007v-1.007h9.696v1.007c0 .556-.434 1.007-.97 1.007zm.97-16.114v13.429h-9.696v-13.429zm-8.726-2.686h7.756c.536 0 .97.454.97 1.013v1.012h-9.696v-1.012c0-.56.434-1.013.97-1.013zm7.765-.671h-7.764c-.893.001-1.617.752-1.618 1.679v16.785c.001.927.725 1.678 1.618 1.679h7.764c.893-.001 1.617-.752 1.618-1.679v-16.785c-.001-.927-.725-1.678-1.618-1.679z"/><path id="9jxlb" d="M518.625 2363.36h-2.25c-.207 0-.375.225-.375.504 0 .278.168.503.375.503h2.25c.207 0 .375-.225.375-.503 0-.279-.168-.504-.375-.504z"/><path id="9jxlc" d="M516.333 2348.247h1.334c.184 0 .333-.225.333-.503 0-.279-.15-.504-.333-.504h-1.334c-.184 0-.333.225-.333.504 0 .278.15.503.333.503z"/></defs><g><g transform="translate(-511 -2345)"><g><use fill="#00d8ff" xlink:href="#9jxla"/></g><g><use fill="#00d8ff" xlink:href="#9jxlb"/></g><g><use fill="#00d8ff" xlink:href="#9jxlc"/></g></g></g></svg>