<svg xmlns="http://www.w3.org/2000/svg" xmlns:xlink="http://www.w3.org/1999/xlink" width="53" height="52" viewBox="0 0 53 52"><defs><path id="7c8ja" d="M1031.39 1769v-52h52.34v52z"/><path id="7c8jc" d="M1049.082 1753.913v-24.483h18.625v24.483zm9.313 3.654c-.7 0-1.264-.57-1.264-1.274a1.27 1.27 0 0 1 1.264-1.277 1.27 1.27 0 0 1 1.264 1.277 1.27 1.27 0 0 1-1.264 1.274zm9.337-30.707h-18.677a2.13 2.13 0 0 0-2.125 2.14v27.23c0 1.178.948 2.138 2.125 2.138h18.677c1.174 0 2.126-.959 2.126-2.139V1729a2.131 2.131 0 0 0-2.126-2.14z"/><clipPath id="7c8jb"><use fill="#fff" xlink:href="#7c8ja"/></clipPath></defs><g><g transform="translate(-1031 -1717)"><g><g><use fill="#fff" fill-opacity="0" stroke="#e0edf0" stroke-miterlimit="50" stroke-width="3.87" clip-path="url(&quot;#7c8jb&quot;)" xlink:href="#7c8ja"/></g></g><g transform="rotate(-90 1058 1742)"><g><use fill="#e0edf0" xlink:href="#7c8jc"/></g></g></g></g></svg>