<svg xmlns="http://www.w3.org/2000/svg" xmlns:xlink="http://www.w3.org/1999/xlink" width="42" height="47" viewBox="0 0 42 47"><defs><path id="1assa" d="M1048.917 1356l23.917 13.49v26.98l-23.917 13.49-23.917-13.49v-26.98z"/><path id="1assb" d="M1069.113 1370.696l-6.864 3.947-.095-.054-12.405-6.792v-8.007zm-21.021-10.906v8.007l-12.405 6.792-.095.054-6.864-3.947zm-20.172 34.58v-22.235l6.91 3.97v14.29zm1.292 1.167l7.116-4.094 11.764 6.447v8.286zm33.8-5.141v-14.292l6.909-3.97v22.236zm5.618 5.14l-18.88 10.64v-8.286l11.763-6.447z"/><path id="1assc" d="M1037.163 1375.523l11.615-6.393 11.615 6.393-11.615 6.713-11.615-6.713m12.44 20.441v-12.295l11.57-6.686v12.615l-11.57 6.366m-1.653 0l-11.57-6.366v-12.615l11.57 6.686v12.295"/></defs><g><g transform="translate(-1028 -1359)"><g><use fill="#fff" xlink:href="#1assa"/></g><g><use fill="#8ed6fb" xlink:href="#1assb"/></g><g><use fill="#1c78c0" xlink:href="#1assc"/></g></g></g></svg>