<svg xmlns="http://www.w3.org/2000/svg" xmlns:xlink="http://www.w3.org/1999/xlink" width="44" height="44" viewBox="0 0 44 44"><defs><path id="xkvaa" d="M1148 1216h44v44h-44z"/><path id="xkvac" d="M1169.882 1216c-12.065 0-21.882 9.83-21.882 21.914 0 12.085 9.816 21.916 21.882 21.916s21.884-9.83 21.884-21.916c0-12.083-9.818-21.914-21.884-21.914z"/><path id="xkvad" d="M1232.512 1240.305c0 2.806-1.358 6.292-5.303 6.292-3.902 0-5.26-3.486-5.26-6.292 0-2.764 1.358-6.292 5.26-6.292 3.945 0 5.303 3.528 5.303 6.292zm3.17-.006c0-4.163-3.815-7.604-8.478-7.604s-8.478 3.441-8.478 7.604c0 4.207 3.815 7.647 8.478 7.647s8.479-3.44 8.479-7.647zm-22.894 1.446l-4.2-12.745h-.806l-4.284 12.745-2.842-8.667c-.891-2.633-.212-3.228 2.29-3.228v-.85h-9.416v.85c2.46 0 3.139.637 4.157 3.738l4.708 14.528h.552l4.411-13.296 4.327 13.296h.551l4.836-14.528c1.06-3.101 1.697-3.738 4.369-3.738v-.85h-7.975v.85c2.716 0 3.097.721 2.248 3.228zm46.913 4.342c-1.527 0-1.74-.382-1.74-2.338v-9.226h2.037c4.411 0 5.216 3.23 5.216 5.74 0 2.593-.805 5.824-5.216 5.824zm-17.603-5.915v-5.65h1.735c1.904 0 2.75 1.318 2.75 2.847 0 1.487-.846 2.803-2.75 2.803zm10.184-6.924v.806c2.376 0 2.758.51 2.758 3.524v5.434c0 3.014-.381 3.566-2.758 3.566-1.823-.255-3.055-1.231-4.752-3.1l-1.951-2.122c2.63-.467 4.03-2.122 4.03-3.99 0-2.335-1.994-4.118-5.728-4.118h-7.468v.806c2.376 0 2.758.51 2.758 3.524v5.434c0 3.014-.382 3.566-2.758 3.566v.807h8.444v-.807c-2.375 0-2.758-.552-2.758-3.566v-1.528h.722l4.71 5.9h12.347c6.067 0 8.699-3.225 8.699-7.089-.001-3.863-2.632-7.047-8.7-7.047z"/><path id="xkvae" d="M1331.895 1246.502c-.212.213-.594.85-.678 1.444h-.806v-5.862h.848c.34 2.804 2.29 4.46 4.793 4.46 1.358 0 2.46-.764 2.46-2.038 0-1.104-.975-1.954-2.714-2.761l-2.419-1.147c-1.696-.808-2.969-2.21-2.969-4.078 0-2.04 1.91-3.78 4.54-3.78 1.399 0 2.586.51 3.308 1.104.212-.17.424-.638.55-1.148h.807v5.014h-.89c-.298-1.997-1.4-3.654-3.648-3.654-1.188 0-2.291.68-2.291 1.742 0 1.104.89 1.699 2.927 2.633l2.332 1.147c2.036.977 2.842 2.55 2.842 3.824 0 2.676-2.333 4.544-5.174 4.544-1.698 0-3.182-.891-3.818-1.444zm-13.066 0c-.212.213-.593.85-.678 1.444h-.805v-5.862h.847c.34 2.804 2.289 4.46 4.79 4.46 1.355 0 2.457-.764 2.457-2.038 0-1.104-.974-1.954-2.712-2.761l-2.416-1.147c-1.695-.808-2.966-2.21-2.966-4.078 0-2.04 1.907-3.78 4.534-3.78 1.399 0 2.585.51 3.306 1.104.212-.17.424-.638.551-1.148h.805v5.014h-.89c-.297-1.997-1.398-3.654-3.644-3.654-1.187 0-2.289.68-2.289 1.742 0 1.104.89 1.699 2.924 2.633l2.33 1.147c2.035.977 2.84 2.55 2.84 3.824 0 2.676-2.33 4.544-5.17 4.544-1.695 0-3.178-.891-3.814-1.444zm-25.537-6.33c1.904 0 2.751-1.316 2.751-2.803 0-1.529-.847-2.846-2.751-2.846h-1.735v5.65zm20.746 3.222l.637.001-.255 3.99h-17.433l-4.708-5.9h-.722v1.527c0 3.014.383 3.566 2.757 3.566v.807h-8.44v-.807c2.375 0 2.756-.552 2.756-3.566v-5.434c0-3.014-.382-3.523-2.757-3.523v-.806h7.465c3.733 0 5.727 1.783 5.727 4.117 0 1.868-1.4 3.523-4.03 3.99l1.951 2.123c1.672 1.84 2.894 2.812 4.674 3.084 1.873-.099 2.197-.794 2.197-3.55v-5.435c0-3.013-.382-3.523-2.757-3.523v-.806h12.47l.297 3.99h-.678l-.213-.806c-.381-1.401-.848-1.91-3.86-1.91h-2.332v4.753c3.308 0 3.563-.297 3.563-2.504h.806v6.326h-.806c0-2.208-.255-2.505-3.563-2.505v1.953c0 3.013.381 3.523 2.587 3.523h.594c3.011 0 3.479-.51 3.86-1.91zm-35.928-12.865h-2.418v7.392h2.418c2.376 0 3.478-1.656 3.478-3.653 0-2.039-1.102-3.739-3.478-3.739zm.934 16.866h-9.714v-.85c2.842 0 3.351-.722 3.351-4.971v-6.796c0-4.249-.509-4.928-3.351-4.928v-.85h8.78c4.369 0 6.788 2.252 6.788 5.268 0 2.931-2.419 5.225-6.788 5.225h-2.418v2.081c0 4.249.509 4.97 3.352 4.97z"/><path id="xkvaf" d="M1182.555 1236.971c0-2.323-.834-3.932-1.549-5.185-.951-1.548-1.843-2.86-1.843-4.409 0-1.728 1.309-3.337 3.152-3.337.083 0 .162.01.244.015a18.689 18.689 0 0 0-12.677-4.935c-6.558 0-12.328 3.37-15.684 8.474.44.013.855.022 1.208.022 1.963 0 5.003-.238 5.003-.238 1.011-.06 1.13 1.429.12 1.548 0 0-1.017.12-2.149.18l6.836 20.364 4.109-12.34-2.925-8.025c-1.011-.06-1.969-.179-1.969-.179-1.011-.06-.893-1.608.119-1.549 0 0 3.1.239 4.944.239 1.964 0 5.003-.239 5.003-.239 1.013-.06 1.132 1.43.12 1.549 0 0-1.018.12-2.148.18l6.784 20.21 1.872-6.267c.812-2.6 1.43-4.468 1.43-6.078zm-31.445.946c0 7.443 4.318 13.874 10.58 16.922l-8.955-24.574a18.756 18.756 0 0 0-1.625 7.652z"/><path id="xkvag" d="M1186.355 1228.89c.08.599.126 1.242.126 1.933 0 1.908-.356 4.052-1.427 6.734l-5.734 16.602c5.58-3.26 9.334-9.314 9.334-16.25a18.718 18.718 0 0 0-2.3-9.019zm-16.143 10.668l-5.632 16.386a18.736 18.736 0 0 0 11.537-.299 1.592 1.592 0 0 1-.134-.259z"/><path id="xkvah" d="M1169.882 1258.815c-11.512 0-20.879-9.378-20.879-20.906 0-11.526 9.367-20.904 20.88-20.904 11.511 0 20.877 9.378 20.877 20.904 0 11.528-9.366 20.906-20.878 20.906zm0-42.815c-12.065 0-21.882 9.83-21.882 21.914 0 12.085 9.816 21.916 21.882 21.916s21.884-9.83 21.884-21.916c0-12.083-9.818-21.914-21.884-21.914z"/><clipPath id="xkvab"><use xlink:href="#xkvaa"/></clipPath></defs><g><g transform="translate(-1148 -1216)"><g/><g clip-path="url(#xkvab)"><g><use fill="#fff" xlink:href="#xkvac"/></g><g><use fill="#00749a" xlink:href="#xkvad"/></g><g><use fill="#464342" xlink:href="#xkvae"/></g><g><g><use fill="#00749a" xlink:href="#xkvaf"/></g><g><use fill="#00749a" xlink:href="#xkvag"/></g><g><use fill="#00749a" xlink:href="#xkvah"/></g></g></g></g></g></svg>